<svg width="190" height="129" viewBox="0 0 190 129" fill="none" xmlns="http://www.w3.org/2000/svg">
<g filter="url(#filter0_iif_122_2)">
<path d="M97.2013 64.587C108.913 58.7471 122.554 67.775 121.756 80.8372L119.851 112.009C119.053 125.071 104.414 132.371 93.5007 125.149L67.4573 107.913C56.5442 100.691 57.5419 84.3633 69.2532 78.5234L97.2013 64.587Z" fill="url(#paint0_radial_122_2)"/>
<path d="M97.4244 65.0344C108.791 59.3663 122.031 68.1287 121.257 80.8068L119.352 111.979C118.577 124.657 104.369 131.742 93.7766 124.732L67.7333 107.496C57.1411 100.487 58.1094 84.639 69.4763 78.9709L97.4244 65.0344Z" stroke="#F5DAFF"/>
</g>
<g filter="url(#filter1_ii_122_2)">
<path d="M97.2013 64.587C108.913 58.7471 122.554 67.775 121.756 80.8372L119.851 112.009C119.053 125.071 104.414 132.371 93.5007 125.149L67.4573 107.913C56.5442 100.691 57.5419 84.3633 69.2532 78.5234L97.2013 64.587Z" fill="url(#paint1_radial_122_2)"/>
</g>
<path d="M97.4244 65.0344C108.791 59.3663 122.031 68.1287 121.257 80.8068L119.352 111.979C118.577 124.657 104.369 131.742 93.7766 124.732L67.7333 107.496C57.1411 100.487 58.1094 84.639 69.4763 78.9709L97.4244 65.0344Z" stroke="#DB73FF"/>
<defs>
<filter id="filter0_iif_122_2" x="24.8388" y="27.7742" width="131.951" height="135.221" filterUnits="userSpaceOnUse" color-interpolation-filters="sRGB">
<feFlood flood-opacity="0" result="BackgroundImageFix"/>
<feBlend mode="normal" in="SourceGraphic" in2="BackgroundImageFix" result="shape"/>
<feColorMatrix in="SourceAlpha" type="matrix" values="0 0 0 0 0 0 0 0 0 0 0 0 0 0 0 0 0 0 127 0" result="hardAlpha"/>
<feOffset dy="-2"/>
<feGaussianBlur stdDeviation="6.5"/>
<feComposite in2="hardAlpha" operator="arithmetic" k2="-1" k3="1"/>
<feColorMatrix type="matrix" values="0 0 0 0 0.783717 0 0 0 0 0.430833 0 0 0 0 1 0 0 0 1 0"/>
<feBlend mode="normal" in2="shape" result="effect1_innerShadow_122_2"/>
<feColorMatrix in="SourceAlpha" type="matrix" values="0 0 0 0 0 0 0 0 0 0 0 0 0 0 0 0 0 0 127 0" result="hardAlpha"/>
<feOffset dy="-7"/>
<feGaussianBlur stdDeviation="1.5"/>
<feComposite in2="hardAlpha" operator="arithmetic" k2="-1" k3="1"/>
<feColorMatrix type="matrix" values="0 0 0 0 0 0 0 0 0 0 0 0 0 0 0 0 0 0 0.25 0"/>
<feBlend mode="normal" in2="effect1_innerShadow_122_2" result="effect2_innerShadow_122_2"/>
<feGaussianBlur stdDeviation="17.5" result="effect3_foregroundBlur_122_2"/>
</filter>
<filter id="filter1_ii_122_2" x="59.8388" y="59.7742" width="61.9505" height="68.2213" filterUnits="userSpaceOnUse" color-interpolation-filters="sRGB">
<feFlood flood-opacity="0" result="BackgroundImageFix"/>
<feBlend mode="normal" in="SourceGraphic" in2="BackgroundImageFix" result="shape"/>
<feColorMatrix in="SourceAlpha" type="matrix" values="0 0 0 0 0 0 0 0 0 0 0 0 0 0 0 0 0 0 127 0" result="hardAlpha"/>
<feOffset dy="-2"/>
<feGaussianBlur stdDeviation="6.5"/>
<feComposite in2="hardAlpha" operator="arithmetic" k2="-1" k3="1"/>
<feColorMatrix type="matrix" values="0 0 0 0 0.758383 0 0 0 0 0.364167 0 0 0 0 1 0 0 0 1 0"/>
<feBlend mode="normal" in2="shape" result="effect1_innerShadow_122_2"/>
<feColorMatrix in="SourceAlpha" type="matrix" values="0 0 0 0 0 0 0 0 0 0 0 0 0 0 0 0 0 0 127 0" result="hardAlpha"/>
<feOffset dy="-7"/>
<feGaussianBlur stdDeviation="1.5"/>
<feComposite in2="hardAlpha" operator="arithmetic" k2="-1" k3="1"/>
<feColorMatrix type="matrix" values="0 0 0 0 0 0 0 0 0 0 0 0 0 0 0 0 0 0 0.25 0"/>
<feBlend mode="normal" in2="effect1_innerShadow_122_2" result="effect2_innerShadow_122_2"/>
</filter>
<radialGradient id="paint0_radial_122_2" cx="0" cy="0" r="1" gradientUnits="userSpaceOnUse" gradientTransform="translate(94.8366 94.8365) rotate(112.921) scale(31.6328)">
<stop stop-color="#C972FF"/>
<stop offset="1" stop-color="#B500E2"/>
</radialGradient>
<radialGradient id="paint1_radial_122_2" cx="0" cy="0" r="1" gradientUnits="userSpaceOnUse" gradientTransform="translate(94.8366 94.8365) rotate(112.921) scale(31.6328)">
<stop stop-color="#9E00FF"/>
<stop offset="1" stop-color="#480075"/>
</radialGradient>
</defs>
</svg>
