<svg width="258" height="488" viewBox="0 0 258 488" fill="none" xmlns="http://www.w3.org/2000/svg">
<path fill-rule="evenodd" clip-rule="evenodd" d="M202.62 454.707C202.62 454.707 205.464 452.128 201.5 445.575C197.535 439.019 194.718 428.043 194.378 424.851C194.038 421.66 195.692 407.062 195.692 407.062L197.713 403.045C197.713 403.045 195.992 416.186 198.422 428.272C200.851 440.362 204.25 446.788 204.214 449.564C204.178 452.341 202.62 454.707 202.62 454.707Z" fill="#FFFFBA"/>
<path fill-rule="evenodd" clip-rule="evenodd" d="M132.268 287.613V294.734L106.491 275.436L47.3007 220.442L36.4993 209.24C36.4993 209.24 36.8989 198.797 29.2509 191.605C21.6028 184.413 10.8449 185.1 10.8449 185.1L9.57489 185.199C9.57489 185.199 24.3487 189.492 29.1005 199.003C33.8524 208.514 37.168 216.097 37.168 216.097L92.7181 267.533L139.117 305.987V294.3L132.268 287.621V287.613Z" fill="#FFFFBA"/>
<path fill-rule="evenodd" clip-rule="evenodd" d="M140.201 195.069C140.201 195.069 128.513 216.832 127.706 219.517C126.899 222.203 126.432 230.166 125.106 233.866C123.781 237.567 108.619 259.547 108.702 262.17C108.786 264.792 115.998 270.796 115.979 273.477C115.963 276.163 112.05 280.772 112.05 280.772L103.053 287.617L102.38 263.366L122.21 209.118L140.201 195.073V195.069Z" fill="#FFFFBA"/>
<path fill-rule="evenodd" clip-rule="evenodd" d="M257.572 417.375C257.572 417.375 253.889 410.179 253.113 407.058C252.338 403.938 248.99 387.654 248.99 387.654C248.99 387.654 241.845 379.245 238.965 377.365C236.084 375.485 226.315 372.692 226.315 372.692L233.39 381.808L230.482 379.972L195.47 347.656L183.66 341.751L240.899 396.394L247.198 405.317L257.576 417.379L257.572 417.375Z" fill="#FFFFBA"/>
<path fill-rule="evenodd" clip-rule="evenodd" d="M211.854 188.955C211.854 188.955 207.617 201.582 201.243 207.159L203.154 209.177C203.154 209.177 199.549 214.813 199.81 224.841L202.556 227.689L200.883 239.522L199.795 240.601C199.795 240.601 206.026 256.016 211.921 263.031C211.921 263.031 209.848 267.296 209.009 270.531L211.854 276.155C211.854 276.155 210.264 288.964 210.624 294.73L214.96 299.355C214.96 299.355 213.959 304.909 210.501 310.399L207.613 323.045L211.917 326.742C211.917 326.742 206.406 338.974 202.865 342.584L197.65 304.194L191.676 244.42L187.707 205.279L211.85 188.955H211.854Z" fill="#FFFFBA"/>
<path fill-rule="evenodd" clip-rule="evenodd" d="M242.252 291.081C242.252 291.081 248.302 280.077 249.093 270.539L246.154 265.657C246.154 265.657 245.556 259.784 247.914 249.531C250.272 239.281 255.978 229.32 256.813 220.252C257.647 211.184 248.769 199.461 246.921 192.94C245.077 186.415 243.898 172.236 245.75 167.809C249.089 159.814 242.878 148.025 240.223 145.513C237.568 143.001 228.539 139.94 228.539 139.94L224.899 136.614C224.899 136.614 205.872 132.36 197.709 124.011C197.709 124.011 194.307 118.158 193.765 112.814L194.782 112.359C194.782 112.359 198.259 103.295 201.781 98.6266C201.781 98.6266 201.401 95.0521 199.288 92.8956H197.531C197.531 92.8956 203.177 82.4054 212.234 73.495C212.234 73.495 212.266 69.6994 208.171 65.3153C206.461 63.4826 204.586 61.8475 204.586 61.8475L207.454 10.7588C207.454 10.7588 203.628 4.23401 197.713 2.74105L188.123 58.4034L182.045 57.2422V50.1684L188.93 2.75289L188.123 1.55615L174.473 36.5816L171.236 150.3L200.083 169.017L217.472 181.976L228.044 207.167L236.179 219.367L232.678 278.075L242.256 291.081H242.252Z" fill="#FFFFBA"/>
<path d="M196.673 349.943L166.318 358.537C166.318 358.537 135.845 334.586 134.104 325.068C132.363 315.549 144.561 286.211 144.561 286.211L188.902 290.82L204.115 334.535C204.115 334.535 204.159 347.826 196.677 349.943H196.673Z" fill="url(#paint0_linear_9_7878)"/>
<path fill-rule="evenodd" clip-rule="evenodd" d="M34.9006 209.217C34.9006 209.217 33.0846 196.633 27.3673 191.234C20.198 184.46 5.49546 185.112 5.49546 185.112V189.077C19.1219 192.964 24.7402 198.999 29.9549 212.906L34.8967 209.217H34.9006Z" fill="url(#paint1_linear_9_7878)"/>
<path fill-rule="evenodd" clip-rule="evenodd" d="M29.959 212.902C18.1684 210.295 10.378 204.769 3.58455 191.419L-9.72748e-05 191.542C-9.72748e-05 191.542 1.97027 205.603 8.90613 211.981C15.838 218.364 27.3714 219.608 27.3714 219.608L29.959 212.898V212.902Z" fill="url(#paint2_linear_9_7878)"/>
<path fill-rule="evenodd" clip-rule="evenodd" d="M27.3714 219.588C27.3714 219.588 45.2986 230.568 53.5481 237.784C56.286 240.174 78.1183 258.816 106.115 282.684C106.344 279.935 109.617 278.675 110.016 279.019C83.3805 256.154 61.9122 237.484 56.7766 232.358C41.0018 216.606 34.9047 209.177 34.9047 209.177C27.0153 212.858 27.3754 219.584 27.3754 219.584L27.3714 219.588Z" fill="url(#paint3_linear_9_7878)"/>
<path d="M87.9542 260.013L84.4645 264.223L71.2259 252.923C71.2259 252.923 70.3317 249.471 73.8886 247.777L87.9503 260.013H87.9542Z" fill="url(#paint4_linear_9_7878)"/>
<path d="M148.624 454.64C148.624 454.64 147.433 457.977 149.226 461.441L156.039 462.756C156.039 462.756 157.76 463.542 160.083 464.273C162.278 465.003 165.001 465.675 167.268 465.62C171.928 465.489 181.61 461.796 187.347 460.252C193.084 458.692 202.651 457.389 204.198 452.021C205.017 449.173 202.493 445.393 200.614 441.843C198.952 438.691 197.887 435.658 197.63 434.955C193.887 424.946 196.784 404.171 197.357 389.854C197.603 384.028 197.444 379.257 196.309 376.741C188.835 360.133 180.704 359.173 180.087 351.787C179.454 344.401 186.097 284.268 180.087 276.748C174.077 269.231 149.839 263.56 140.976 271.048C140.976 271.048 148.26 326.987 159.236 357.854C159.236 357.854 161.776 361.819 166.551 364.584L183.402 436.744C183.402 436.744 162.979 451.792 158.603 453.597C158.532 453.64 158.472 453.668 158.417 453.684L148.62 454.644L148.624 454.64Z" fill="url(#paint5_linear_9_7878)"/>
<path fill-rule="evenodd" clip-rule="evenodd" d="M158.611 453.593C159.671 457.057 159.987 461.366 160.086 464.273C162.282 465.004 165.004 465.675 167.272 465.62C171.932 465.489 181.614 461.796 187.351 460.252C193.088 458.692 202.655 457.389 204.202 452.021C205.021 449.173 202.497 445.394 200.617 441.843C198.956 438.691 197.891 435.658 197.634 434.955C193.891 424.946 196.787 404.171 197.361 389.854L196.313 376.741C188.182 366.831 166.551 364.584 166.551 364.584L183.402 436.744C183.402 436.744 162.979 451.792 158.603 453.597L158.611 453.593Z" fill="url(#paint6_linear_9_7878)"/>
<g style="mix-blend-mode:multiply">
<path fill-rule="evenodd" clip-rule="evenodd" d="M195.838 423.975L181.484 436.862L179.11 418.334L195.838 406.079V423.975Z" fill="#A7756D"/>
</g>
<path d="M137.51 487.003C140.549 487.864 147.378 487.003 147.378 487.003L148.81 484.353L150.243 486.316C157.04 487.031 175.687 487.406 176.949 486.316C177.61 485.759 177.78 483.938 178.113 481.876C178.386 480.044 178.801 478.01 179.806 476.493C179.806 476.477 179.822 476.477 179.822 476.477C180.067 476.106 180.324 475.774 180.597 475.49L180.625 475.462C182.532 473.373 184.684 473.215 185.143 471.698C185.171 471.627 185.187 471.556 185.199 471.469C185.527 469.692 181.856 463.467 181.614 459.928C181.598 459.798 181.586 459.671 181.586 459.541C181.586 459.328 181.602 459.126 181.63 458.941C182.176 455.718 183.767 455.189 183.581 453.214C183.565 453.001 183.537 452.799 183.494 452.598C183.478 452.554 183.466 452.511 183.466 452.456C183.165 450.982 182.449 450.181 181.974 449.09C181.428 447.846 181.258 443.549 183.406 436.748C185.373 430.535 196.313 411.178 199.411 395.442C199.711 393.953 199.929 392.492 200.072 391.09C200.503 386.808 200.186 382.543 199.526 378.348C197.674 366.594 193.013 355.44 193.804 346.261C194.236 341.265 196.301 331.829 198.608 322.382C202.022 308.353 205.995 294.205 205.995 294.205C197.575 284.639 170.14 283.553 170.14 283.553C170.14 283.553 168.72 306.39 167.905 323.784C167.462 333.275 167.2 341.151 167.462 342.798C168.178 347.434 170.674 354.595 171.434 358.549C171.505 358.92 171.521 359.923 171.505 361.468C171.489 363.201 171.406 365.619 171.291 368.541C171.046 374.012 170.658 381.255 170.172 389.186C170.085 390.616 170.002 392.077 169.899 393.554C169.855 394.297 169.8 395.043 169.756 395.79C169.713 396.532 169.657 397.279 169.614 398.021C169.412 401.027 169.214 404.064 168.997 407.086C168.953 407.844 168.898 408.603 168.838 409.361C168.68 411.624 168.51 413.871 168.352 416.075L168.178 418.267C168.091 419.512 167.992 420.76 167.893 421.976C167.877 422.178 167.865 422.363 167.849 422.565C167.762 423.623 167.675 424.67 167.592 425.685C167.505 426.775 167.406 427.845 167.319 428.892C167.22 430.124 167.117 431.325 167.003 432.486C166.975 432.814 166.947 433.13 166.916 433.446C166.856 434.046 166.817 434.65 166.757 435.235C166.686 435.895 166.627 436.538 166.571 437.166L166.484 437.984C166.457 438.272 166.425 438.557 166.397 438.829C166.298 439.947 166.184 440.99 166.069 441.977C165.938 443.209 165.812 444.339 165.669 445.342C165.669 445.386 165.669 445.429 165.653 445.473C165.582 446.029 165.523 446.547 165.44 447.017C165.424 447.191 165.396 447.36 165.369 447.534C165.297 447.977 165.238 448.391 165.167 448.767C165.167 448.794 165.167 448.822 165.151 448.838C165.135 448.909 165.123 448.98 165.107 449.039C165.052 449.339 164.993 449.584 164.937 449.813C163.746 454.881 159.315 461.382 155.283 466.481V466.496L155.267 466.512C154.492 467.5 153.72 468.444 153 469.317C151.881 470.648 150.864 471.809 150.061 472.725C148.854 474.072 148.094 474.874 148.094 474.874L137.51 479.886C136.078 482.749 137.51 487.015 137.51 487.015V487.003Z" fill="url(#paint7_linear_9_7878)"/>
<path fill-rule="evenodd" clip-rule="evenodd" d="M150.061 469.676V472.709C150.061 472.709 158.48 470.391 165.839 472.539C173.199 474.688 178.101 481.876 178.101 481.876H180.368C180.368 481.876 178.833 478.61 179.81 476.493C179.81 476.477 179.826 476.477 179.826 476.477C180 476.106 180.241 475.762 180.601 475.49L180.629 475.462C183.023 473.602 185.262 473.073 185.618 471.584C185.935 470.264 182.089 463.064 181.618 459.928C181.602 459.798 181.59 459.671 181.59 459.541C181.575 459.312 181.59 459.099 181.634 458.941C182.251 456.824 184.546 455.118 183.498 452.598C183.482 452.554 183.47 452.511 183.47 452.456C183.169 450.982 182.453 450.181 181.978 449.09C181.432 447.846 181.262 443.549 183.41 436.748C185.377 430.535 196.317 411.178 199.415 395.442C195.415 389.846 187.854 381.255 178.101 379.122C178.101 379.122 177.155 379.237 175.719 380.469C174.227 381.745 172.206 384.265 170.168 389.19C170.081 390.62 169.998 392.081 169.895 393.558C169.851 394.301 169.796 395.047 169.752 395.794C169.709 396.525 169.665 397.267 169.61 398.025C169.408 401.031 169.21 404.068 168.993 407.09C168.949 407.848 168.894 408.607 168.835 409.365C168.676 411.628 168.506 413.875 168.348 416.079L168.174 418.271C168.087 419.515 167.988 420.764 167.889 421.98C167.873 422.181 167.861 422.367 167.845 422.569C167.758 423.627 167.671 424.674 167.588 425.689C167.501 426.779 167.402 427.849 167.315 428.896C167.216 430.128 167.102 431.329 166.999 432.49C166.971 432.818 166.943 433.134 166.912 433.45C166.852 434.066 166.797 434.654 166.753 435.239C166.682 435.899 166.623 436.542 166.567 437.17L166.48 437.988C166.453 438.276 166.421 438.561 166.393 438.833C166.279 439.951 166.164 441.009 166.065 441.981C165.922 443.213 165.792 444.343 165.665 445.346C165.665 445.39 165.665 445.433 165.649 445.476C165.578 446.033 165.507 446.551 165.436 447.021C165.42 447.195 165.392 447.364 165.365 447.538C165.266 448.111 165.179 448.613 165.107 449.043C165.052 449.343 164.993 449.588 164.937 449.817C163.746 454.885 159.315 461.386 155.283 466.485V466.5L155.267 466.516C153.978 468.104 150.535 469.51 150.104 469.68C150.088 469.696 150.076 469.696 150.061 469.696V469.676Z" fill="url(#paint8_linear_9_7878)"/>
<g style="mix-blend-mode:multiply">
<path fill-rule="evenodd" clip-rule="evenodd" d="M167.458 342.798C168.174 347.434 170.67 354.595 171.43 358.549C171.501 358.92 171.529 358.375 171.517 359.923L178.03 353.466C185.531 355.037 189.84 357.763 193.686 364.588L199.53 378.352C197.678 366.598 193.017 355.444 193.808 346.265C194.24 341.269 196.305 331.833 198.612 322.386L188.902 312.05L167.905 323.788C167.462 333.279 167.2 341.154 167.462 342.801L167.458 342.798Z" fill="#A7756D"/>
</g>
<path style="mix-blend-mode:multiply" fill-rule="evenodd" clip-rule="evenodd" d="M137.51 487.003C140.549 487.864 147.378 487.003 147.378 487.003L148.81 484.353L150.242 486.316C157.04 487.031 175.687 487.406 176.949 486.316C177.61 485.759 177.78 483.938 178.112 481.876H180.364C180.364 481.876 178.829 478.61 179.806 476.493C179.806 476.477 179.822 476.477 179.822 476.477C180.067 476.106 180.324 475.774 180.597 475.49L180.625 475.462C183.019 473.602 185.258 473.073 185.614 471.584C185.614 471.584 185.444 471.627 185.139 471.698C183.391 472.156 177.135 473.76 174.726 474.633C174.726 474.633 164.039 468.535 152.996 469.305C152.035 469.364 151.061 469.49 150.1 469.664C150.084 469.68 150.072 469.68 150.057 469.68V472.713C150.057 472.713 165.519 471.398 174.726 481.876L171.426 483.567L151.303 481.876L151.849 479.641L147.188 481.876C147.188 481.876 142.167 482.062 137.506 479.87C136.074 482.733 137.506 486.999 137.506 486.999L137.51 487.003Z" fill="url(#paint9_linear_9_7878)"/>
<path style="mix-blend-mode:multiply" d="M197.713 403.045C197.713 403.045 190.865 390.332 176.38 384.423C176.38 384.423 170.184 389.083 169.895 393.55L169.606 398.018C169.606 398.018 172.055 391.386 176.376 388.941C176.376 388.941 188.653 395.253 195.62 408.362L197.709 403.045H197.713Z" fill="url(#paint10_linear_9_7878)"/>
<g style="mix-blend-mode:multiply">
<path fill-rule="evenodd" clip-rule="evenodd" d="M170.168 389.186C168.763 412.181 166.583 440.915 165.163 448.763C166.583 442.491 173.982 409.416 175.933 395.043C178.097 379.122 171.659 367.969 171.659 367.969L171.288 368.541C171.042 374.012 170.654 381.255 170.168 389.186Z" fill="#A7756D"/>
</g>
<g style="mix-blend-mode:soft-light">
<path fill-rule="evenodd" clip-rule="evenodd" d="M178.433 458.779C178.433 458.779 181.448 472.709 174.73 474.629C174.73 474.629 160.818 465.979 150.061 469.676C158.255 466.694 161.436 461.263 164.585 454.13C164.585 454.13 172.34 449.987 178.433 458.779Z" fill="#FFFF00"/>
</g>
<path d="M78.9491 272.814C78.9491 272.814 80.4962 276.752 83.2539 277.94H84.4448L90.898 282.593L94.2413 285.702C94.2413 285.702 94.6013 287.605 95.3174 288.565C95.3174 288.565 97.8852 291.298 100.967 291.069L105.24 283.912C105.24 283.912 114.922 276.266 115.168 274.248C115.397 272.213 108.224 266.372 107.868 262.079C107.61 258.97 114.768 246.975 119.385 238.298L119.456 238.168C120.762 235.707 121.85 233.531 122.499 231.896V231.88C122.713 231.335 122.887 230.865 123.002 230.45C123.132 229.948 123.259 229.463 123.389 228.989C124.723 223.834 125.356 220.299 126.875 217.448C128.553 214.339 140.988 194.654 140.988 194.654L140.387 190.815L137.273 171.028C137.273 171.028 125.684 161.608 123.002 161.422C120.192 163.397 119.472 182.252 118.04 187.979C116.833 192.762 107.785 204.13 102.463 211.361C102.463 211.377 102.447 211.377 102.447 211.377C101.43 212.795 100.524 214.039 99.8675 215.058C95.8081 221.271 93.8852 247.876 93.5291 251.81C93.4737 252.41 93.1848 253.113 92.7259 253.899V253.915C90.2293 258.196 82.5852 264.954 78.9571 272.814H78.9491Z" fill="url(#paint11_linear_9_7878)"/>
<path fill-rule="evenodd" clip-rule="evenodd" d="M138.899 197.972C138.899 197.972 136.05 190.397 118.689 183.655L119.092 181.008C119.092 181.008 134.519 185.187 140.197 195.906L138.899 197.972Z" fill="url(#paint12_linear_9_7878)"/>
<path fill-rule="evenodd" clip-rule="evenodd" d="M92.718 253.899V253.915C98.1266 263.623 107.864 262.075 107.864 262.075C107.808 261.344 108.153 260.112 108.797 258.552C110.847 253.496 115.856 244.921 119.381 238.294L119.453 238.164L122.495 231.88C122.281 217.748 111.694 207.167 111.694 207.167C108.552 207.467 105.324 209.213 102.459 211.361C102.459 211.377 102.443 211.377 102.443 211.377C101.426 212.795 100.52 214.039 99.8636 215.058C99.2187 216.061 98.6173 217.594 98.0712 219.466L98.0554 219.482C95.3452 228.858 93.9525 246.9 93.5529 251.308C93.537 251.423 93.537 251.537 93.537 251.608C93.5212 251.739 93.5212 251.81 93.5212 251.81C93.4658 252.41 93.177 253.113 92.718 253.899Z" fill="url(#paint13_linear_9_7878)"/>
<path d="M93.5212 251.81C93.5212 251.81 97.0069 257.793 108.782 258.552H108.797C110.847 253.496 115.856 244.921 119.381 238.294L119.453 238.164C119.453 238.164 118.404 221.385 107.607 213.336C107.607 213.336 102.012 214.367 98.0673 219.462L98.0515 219.478C95.3412 228.854 93.9485 246.896 93.5489 251.304C93.5331 251.419 93.5331 251.533 93.5331 251.604C93.5172 251.735 93.5172 251.806 93.5172 251.806L93.5212 251.81Z" fill="url(#paint14_radial_9_7878)"/>
<path style="mix-blend-mode:multiply" fill-rule="evenodd" clip-rule="evenodd" d="M120.545 202.297C120.545 202.297 124.359 216.014 124.129 223.53C124.058 225.576 123.397 228.586 122.495 231.876C122.709 231.331 122.883 230.861 122.998 230.446C124.604 224.49 125.205 220.552 126.871 217.448C128.549 214.339 140.984 194.654 140.984 194.654L140.383 190.815L133.843 180.206C129.569 185.918 119.456 189.37 119.456 189.37L120.548 202.297H120.545Z" fill="url(#paint15_linear_9_7878)"/>
<path fill-rule="evenodd" clip-rule="evenodd" d="M202.366 67.7996C202.366 67.7996 203.039 52.2498 204.111 35.4362C205.278 17.1809 205.278 9.66476 205.278 9.66476C205.278 9.66476 203.664 3.76005 196.313 2.14859L183.224 56.0178V67.6061L195.403 74.4587L202.362 67.7996H202.366Z" fill="url(#paint16_linear_9_7878)"/>
<path fill-rule="evenodd" clip-rule="evenodd" d="M197.856 75.8332C197.856 75.8332 202.77 24.16 202.588 8.59046C202.588 8.59046 202.228 4.2972 196.313 2.14859L183.224 56.0178V67.6061L197.852 75.8371L197.856 75.8332Z" fill="url(#paint17_radial_9_7878)"/>
<path fill-rule="evenodd" clip-rule="evenodd" d="M176.712 66.1289L188.123 1.55221L185.919 0C185.919 0 176.953 4.65268 173.191 12.1689C169.424 19.685 158.108 69.5572 158.108 69.5572L176.716 66.1289H176.712Z" fill="url(#paint18_linear_9_7878)"/>
<path fill-rule="evenodd" clip-rule="evenodd" d="M185.915 0L171.232 67.14L158.1 69.5611C158.1 69.5611 170.749 17.0072 173.187 12.1689C177.068 4.47495 185.915 0 185.915 0Z" fill="url(#paint19_radial_9_7878)"/>
<path fill-rule="evenodd" clip-rule="evenodd" d="M188.123 69.7784C188.123 69.7784 185.579 55.4728 179.992 54.0509C174.409 52.629 165.119 64.9835 164.043 68.4671C164.043 68.4671 175.624 63.3168 188.123 69.7823V69.7784Z" fill="url(#paint20_radial_9_7878)"/>
<path fill-rule="evenodd" clip-rule="evenodd" d="M151.762 65.3231C151.762 65.3231 156.601 64.786 161.084 66.1289C161.084 66.1289 164.399 90.6483 161.8 107.023L158.1 108.098C158.1 108.098 157.677 79.6406 151.762 65.3231Z" fill="url(#paint21_linear_9_7878)"/>
<path fill-rule="evenodd" clip-rule="evenodd" d="M151.762 65.3232C151.762 65.3232 156.795 77.9423 157.772 91.9082C158.516 102.529 157.772 107.024 157.772 107.024H155.667C155.667 107.024 158.104 85.3676 148.529 67.1005L151.762 65.3271V65.3232Z" fill="url(#paint22_linear_9_7878)"/>
<path d="M191.593 109.571C191.593 109.571 191.976 119.611 195.937 126.649C195.937 126.649 191.411 133.451 181.852 135.718C172.289 137.985 164.043 133.569 164.043 133.569C164.043 133.569 165.357 126.412 165.598 122.115L191.593 109.571Z" fill="url(#paint23_linear_9_7878)"/>
<path style="mix-blend-mode:multiply" fill-rule="evenodd" clip-rule="evenodd" d="M192.91 118.509L185.915 136.365L166.255 138.103L164.577 132.613L191.593 109.571C191.854 113.118 192.277 115.839 192.91 118.509Z" fill="url(#paint24_linear_9_7878)"/>
<path d="M155.683 103.378C155.552 104.452 156.514 108.39 157.705 112.328C158.911 116.266 161.175 124.986 162.496 126.645C163.802 128.32 171.216 129.394 173.483 128.205C173.828 128.02 174.429 127.676 175.22 127.218C179.565 124.599 189.448 118.154 190.465 114.717C191.656 110.665 192.815 101.846 194.437 91.537C194.71 89.8189 194.71 88.1995 194.465 86.667C193.187 77.9344 184.625 72.2192 176.708 71.0462C165.365 69.3716 159.497 76.4138 158.907 77.733C158.749 78.0608 158.579 78.5071 158.405 79.064C157.918 80.7268 157.471 83.5034 157.831 87.8677C158.033 90.3718 157.689 93.3656 157.214 96.0712V96.0869C156.581 99.693 155.738 102.758 155.679 103.374L155.683 103.378Z" fill="url(#paint25_linear_9_7878)"/>
<path d="M193.606 96.9085C193.606 96.9085 195.3 94.673 197.749 94.673C197.749 94.673 200.305 95.3879 200.574 98.5674C200.574 98.5674 195.893 106.19 194.639 110.246C194.639 110.246 192.851 111.167 191.593 109.575C190.338 107.979 193.606 96.9125 193.606 96.9125V96.9085Z" fill="url(#paint26_linear_9_7878)"/>
<path style="mix-blend-mode:multiply" fill-rule="evenodd" clip-rule="evenodd" d="M157.218 96.0791V96.0949C157.262 96.3239 157.661 98.828 158.611 99.5152C159.616 100.23 164.146 101.206 164.146 101.206C164.146 101.206 166.599 97.3271 166.025 90.9959C166.025 90.9959 169.412 87.3859 173.697 89.5345C173.697 89.5345 172.277 99.2862 173.139 102.592C173.139 102.592 179.284 103.335 184.665 100.242V107.024L181.527 109.571L175.881 125.729L175.22 127.218C179.565 124.599 189.448 118.154 190.465 114.717C191.656 110.665 192.815 101.846 194.437 91.537C194.71 89.8189 194.71 88.1995 194.465 86.667L186.991 79.6367L171.299 78.2069L158.405 79.064C157.918 80.7268 157.471 83.5034 157.831 87.8677C158.033 90.3718 157.689 93.3657 157.214 96.0712L157.218 96.0791Z" fill="url(#paint27_linear_9_7878)"/>
<path d="M166.017 90.9879C166.017 90.9879 163.889 85.2768 159.798 84.0247H157.404L157.808 87.8717C157.808 87.8717 161.926 86.588 166.017 90.9879Z" fill="url(#paint28_linear_9_7878)"/>
<path fill-rule="evenodd" clip-rule="evenodd" d="M188.455 90.988C188.455 90.988 180.36 83.4679 170.496 83.0018C161.804 82.591 157.748 86.6552 157.748 86.6552L155.667 70.7935C155.667 70.7935 164.882 65.2166 176.712 66.125C187.676 66.9702 198.465 76.9668 198.465 76.9668L188.455 90.984V90.988Z" fill="url(#paint29_radial_9_7878)"/>
<path d="M122.998 161.422C129.265 163.756 132.319 170.727 132.319 170.727C133.38 183.801 138.401 192.92 138.401 192.92C139.247 193.667 140.28 194.279 140.984 194.654L141 194.67C141.487 194.915 141.819 195.073 141.819 195.073L144.688 199.027L146.12 201.519C170.33 196.507 199.086 208.02 199.086 208.02L200.075 205.816C208.337 195.452 214.964 183.809 214.964 183.809L217.472 183.623C217.472 183.623 225.548 202.953 226.438 209.225C226.683 211.014 226.826 212.831 226.881 214.707C226.909 215.568 226.925 216.452 226.925 217.341C226.941 221.251 226.711 225.402 226.608 229.984C226.478 235.912 228.171 247.22 228.488 254.053C228.586 256.285 228.531 258.046 228.23 258.978C228.072 259.48 227.728 259.938 227.253 260.368C224.214 263.161 215.823 264.551 215.593 266.411C215.32 268.56 216.309 279.382 216.309 279.382L214.96 285.998C216.566 287.886 219.534 288.419 219.534 288.419L222.303 287.617L228.943 289.493L235.123 291.113L236.828 292.1C239.067 292.444 241.663 292.1 241.663 292.1C241.865 291.812 242.051 291.472 242.252 291.097C245.034 285.686 247.23 272.142 247.23 270.965C247.23 270.464 246.941 269.646 246.613 268.86C246.082 267.66 245.437 266.498 245.437 266.498C245.437 266.498 245.339 265.523 245.279 263.963C245.224 262 245.252 259.109 245.651 256.016C245.782 255.056 245.94 254.096 246.154 253.125C247.459 247.153 254.098 229.328 254.743 220.781C254.815 219.936 254.83 219.178 254.759 218.534C254.043 211.377 248.662 204.386 246.34 197.056C244.001 189.725 242.925 179.16 244.187 170.396C245.434 161.619 243.815 152.5 238.98 148.017C234.735 144.079 225.9 140.829 223.835 140.114L223.518 139.999L223.388 139.956L201.686 144.968L138.579 146.398C137.574 147.156 136.573 147.973 135.595 148.803L135.58 148.819C135.481 148.89 135.378 148.977 135.291 149.064C128.565 154.791 122.986 161.434 122.986 161.434L122.998 161.422Z" fill="url(#paint30_linear_9_7878)"/>
<path style="mix-blend-mode:multiply" fill-rule="evenodd" clip-rule="evenodd" d="M204.475 180.206C204.475 180.206 202.477 189.073 194.785 191.435C183.671 194.848 168.367 192.502 166.433 191.427C164.498 190.353 161.942 184.701 161.942 184.701C160.039 187.991 156.379 191.427 156.379 191.427C150.195 194.848 137.091 193.149 139.132 193.489L140.984 194.65L141 194.666C141.487 194.911 141.819 195.069 141.819 195.069L142.393 195.855C142.393 195.855 159.145 192.861 172.324 195.855C185.191 198.762 194.326 206.104 194.77 206.464L194.785 206.48C197.511 207.38 199.09 208.012 199.09 208.012L200.079 205.808C208.341 195.444 214.968 183.801 214.968 183.801L217.476 183.615C217.476 183.615 225.552 202.945 226.442 209.217C226.687 211.006 226.83 212.823 226.885 214.699C226.913 215.56 226.929 216.444 226.929 217.333L228.048 207.167C229.18 197 228.048 186.305 228.048 186.305H221.607C215.886 179.689 212.93 157.555 212.93 157.555C215.209 153.874 226.568 141.133 226.568 141.133L223.842 140.102L223.526 139.987L223.395 139.944L138.586 146.386L135.603 148.791L135.587 148.807L135.298 149.036V149.052C137.047 155.45 143.243 164.657 143.243 164.657C143.243 164.657 150.413 171.628 164.142 173.591C177.855 175.566 200.071 171.987 200.071 171.987C202.596 173.962 204.475 180.206 204.475 180.206Z" fill="url(#paint31_linear_9_7878)"/>
<path d="M135.303 149.036L136.964 147.819C136.964 147.819 142.357 171.987 172.004 171.987C201.65 171.987 223.391 139.944 223.391 139.944L226.561 141.133L224.195 137.795C224.195 137.795 211.731 136.365 195.941 126.641C195.941 126.641 187.221 134.588 177.068 135.117C166.915 135.647 164.047 133.573 164.047 133.573L161.408 132.254C161.408 132.254 151.168 139.569 145.787 141.717C140.41 143.866 136.062 145.181 136.062 145.181L135.303 149.032V149.036Z" fill="url(#paint32_radial_9_7878)"/>
<path fill-rule="evenodd" clip-rule="evenodd" d="M243.712 181.008C243.712 181.008 234.953 186.415 218.592 186.36L219.625 188.991C219.625 188.991 231.265 191.499 243.938 183.603L243.712 181.004V181.008Z" fill="url(#paint33_linear_9_7878)"/>
<path fill-rule="evenodd" clip-rule="evenodd" d="M200.079 208.138C200.079 208.138 196.554 223.929 198.465 239.001L162.797 255.266L143.247 242.745C143.247 242.745 146.713 218.534 144.561 201.941C144.561 201.941 170.738 195.014 200.079 208.138Z" fill="url(#paint34_radial_9_7878)"/>
<path fill-rule="evenodd" clip-rule="evenodd" d="M200.079 208.138L199.019 214.252C199.019 214.252 174.876 205.101 145.166 209.572L144.561 201.941C144.561 201.941 169.242 194.895 200.079 208.138Z" fill="url(#paint35_linear_9_7878)"/>
<path fill-rule="evenodd" clip-rule="evenodd" d="M183.229 67.6061C183.229 67.6061 175.664 65.1218 167.434 66.6542C167.434 66.6542 172.012 55.8362 177.068 55.8362C183.232 55.8362 183.229 67.6021 183.229 67.6021V67.6061Z" fill="url(#paint36_radial_9_7878)"/>
<path d="M174.532 85.2768C174.532 85.2768 174.002 88.318 176.083 89.7517C176.083 89.7517 182.033 90.6286 185.915 92.0781V90.198C185.915 90.198 180.933 85.9443 174.532 85.2768Z" fill="url(#paint37_linear_9_7878)"/>
<path style="mix-blend-mode:multiply" fill-rule="evenodd" clip-rule="evenodd" d="M173.111 107.024C173.111 107.024 173.365 107.873 172.201 108.678C172.201 108.678 169.895 108.935 168.617 110.156C168.617 110.156 163.501 110.179 161.934 106.143C161.934 106.143 165.345 107.205 168.281 107.024C171.216 106.846 173.115 107.024 173.115 107.024H173.111Z" fill="url(#paint38_linear_9_7878)"/>
<path d="M171.299 108.852C171.299 108.852 170.164 109.279 169.024 109.832C169.024 109.832 169.831 108.295 171.299 108.852Z" fill="url(#paint39_linear_9_7878)"/>
<path style="mix-blend-mode:multiply" fill-rule="evenodd" clip-rule="evenodd" d="M174.987 116.013L172.838 115.934C172.838 115.934 167.319 113.667 161.709 115.519L160.688 115.026C160.688 115.026 161.38 115.144 161.665 114.804C162.35 113.991 163.374 112.261 166.219 112.379C170.916 112.573 173.088 115.547 173.088 115.547L174.987 116.021V116.013Z" fill="url(#paint40_linear_9_7878)"/>
<path style="mix-blend-mode:multiply" fill-rule="evenodd" clip-rule="evenodd" d="M168.739 117.403C168.739 117.403 166.168 117.044 163.77 117.403L166.255 118.746L168.739 117.403Z" fill="url(#paint41_linear_9_7878)"/>
<path fill-rule="evenodd" clip-rule="evenodd" d="M164.094 100.238C164.094 100.238 164.083 98.7924 163.271 98.5081C162.46 98.2237 160.561 98.986 159.509 98.6977C158.456 98.4133 158.615 95.6762 158.615 95.6762L164.423 97.0072C164.423 97.0072 164.458 98.6542 164.098 100.234L164.094 100.238Z" fill="url(#paint42_radial_9_7878)"/>
<path fill-rule="evenodd" clip-rule="evenodd" d="M164.415 97.0112C164.415 97.0112 164.593 97.4101 164.166 97.5799C163.734 97.7498 160.185 97.5602 159.517 97.1336C158.848 96.7071 158.607 95.6801 158.607 95.6801C158.607 95.6801 159.026 92.635 160.613 92.6468C161.823 92.6547 164.245 96.0435 164.411 97.0112H164.415Z" fill="#ECEAF4"/>
<path d="M164.138 96.478C164.138 96.478 164.011 97.2679 163.438 97.6431C163.438 97.6431 162.179 97.7972 160.85 97.4654C160.85 97.4654 159.92 95.3484 160.581 92.947C160.581 92.947 161.926 92.2558 164.142 96.478H164.138Z" fill="url(#paint43_radial_9_7878)"/>
<path d="M164.415 97.0112C164.415 97.0112 162.409 92.8245 160.577 92.947C159.062 93.0497 158.611 95.6801 158.611 95.6801C158.611 95.6801 157.815 95.7196 157.281 94.1437C157.281 94.1437 157.59 94.5268 158.053 94.5821C158.053 94.5821 158.943 91.7463 160.617 91.9161C162.29 92.086 164.035 95.7512 164.415 97.0112Z" fill="url(#paint44_linear_9_7878)"/>
<path fill-rule="evenodd" clip-rule="evenodd" d="M174.611 97.5246C174.611 97.5246 173.59 99.1479 173.705 101.202C173.705 101.202 174.326 99.3217 175.901 99.5468C177.475 99.7759 182.848 102.675 183.671 96.0672L174.611 97.5207V97.5246Z" fill="url(#paint45_radial_9_7878)"/>
<path fill-rule="evenodd" clip-rule="evenodd" d="M174.611 97.5246C174.611 97.5246 174.361 97.9432 174.915 98.2C174.915 98.2 176.158 98.8793 178.959 98.8517C182.263 98.8161 183.671 96.0711 183.671 96.0711C183.671 96.0711 182.255 94.5465 179.537 93.8198C176.818 93.0931 174.611 97.5246 174.611 97.5246Z" fill="#ECEAF4"/>
<path d="M182.56 95.1706C182.56 95.1706 182.88 96.6043 182.093 97.8208C182.093 97.8208 180.657 99.2111 177.764 98.8122C177.764 98.8122 176.538 96.6043 177.567 94.3609C177.567 94.3609 179.818 93.0773 182.564 95.1746L182.56 95.1706Z" fill="url(#paint46_radial_9_7878)"/>
<path d="M186.69 94.361C186.69 94.361 185.254 96.2015 183.671 96.0712C183.671 96.0712 181.357 94.1161 178.658 94.2385C175.96 94.361 174.611 97.5246 174.611 97.5246C174.611 97.5246 175.869 92.8285 178.318 92.8206C181.531 92.8088 182.552 94.7322 184.103 94.7362C184.878 94.7362 186.694 94.357 186.694 94.357L186.69 94.361Z" fill="url(#paint47_linear_9_7878)"/>
<path style="mix-blend-mode:multiply" fill-rule="evenodd" clip-rule="evenodd" d="M199.858 98.6345L198.022 97.5207C198.022 97.5207 196.147 98.7806 194.39 101.198C192.633 103.615 192.372 107.02 192.372 107.02L194.39 105.096L195.601 105.633C195.601 105.633 197.887 102.991 199.367 99.7483L196.119 103.797C196.119 103.797 194.663 103.303 194.394 103.169C194.125 103.034 198.113 98.6305 198.113 98.6305C198.113 98.6305 198.651 98.3422 199.862 98.6305L199.858 98.6345Z" fill="url(#paint48_linear_9_7878)"/>
<path style="mix-blend-mode:screen" opacity="0.5" fill-rule="evenodd" clip-rule="evenodd" d="M171.299 100.238L170.164 106.139L171.299 106.945C171.299 106.945 164.724 107.58 161.934 106.139C161.934 106.139 164.538 101.312 165.163 98.8833C165.163 98.8833 169.024 96.4266 171.299 100.238Z" fill="url(#paint49_linear_9_7878)"/>
<path d="M176.447 97.0112C176.447 97.3982 176.763 97.7142 177.151 97.7142C177.539 97.7142 177.855 97.3982 177.855 97.0112C177.855 96.6241 177.539 96.3081 177.151 96.3081C176.763 96.3081 176.447 96.6241 176.447 97.0112Z" fill="white"/>
<path d="M159.746 95.6802C159.746 96.008 160.011 96.2726 160.34 96.2726C160.668 96.2726 160.933 96.008 160.933 95.6802C160.933 95.3523 160.668 95.0877 160.34 95.0877C160.011 95.0877 159.746 95.3523 159.746 95.6802Z" fill="white"/>
<path d="M218.592 136.622L212.93 134.849C212.93 134.849 190.33 159.953 172.012 159.822C153.693 159.692 145.783 141.729 145.783 141.729L140.984 143.542C140.984 143.542 146.599 166.979 173.487 166.979C200.376 166.979 218.592 136.622 218.592 136.622Z" fill="url(#paint50_radial_9_7878)"/>
<g style="mix-blend-mode:multiply" opacity="0.3">
<path fill-rule="evenodd" clip-rule="evenodd" d="M200.408 46.5821L188.902 32.6596L185.033 48.5846L198.944 63.8855L200.408 46.5821Z" fill="#AB728D"/>
</g>
<g style="mix-blend-mode:multiply" opacity="0.3">
<path fill-rule="evenodd" clip-rule="evenodd" d="M201.951 25.2383L192.91 16.158L195.106 7.12518L202.517 13.7843L201.951 25.2383Z" fill="#AB728D"/>
</g>
<g style="mix-blend-mode:multiply" opacity="0.3">
<path fill-rule="evenodd" clip-rule="evenodd" d="M184.119 8.23105L172.011 15.139L169.63 23.8124L182.378 16.1817L184.119 8.23105Z" fill="#AB728D"/>
</g>
<g style="mix-blend-mode:multiply" opacity="0.3">
<path fill-rule="evenodd" clip-rule="evenodd" d="M179.114 31.1074L166.255 36.6803L162.239 52.6488L176.447 43.3039L179.114 31.1074Z" fill="#AB728D"/>
</g>
<path style="mix-blend-mode:multiply" fill-rule="evenodd" clip-rule="evenodd" d="M161.709 68.1353L161.083 66.1289C161.083 66.1289 156.332 64.7268 151.762 65.3232C151.762 65.3232 156.897 79.9053 157.839 90.988L157.744 86.6552C157.744 86.6552 160.731 84.4671 162.793 83.9299L158.1 69.5532L161.705 68.1314L161.709 68.1353Z" fill="url(#paint51_linear_9_7878)"/>
<path style="mix-blend-mode:multiply" fill-rule="evenodd" clip-rule="evenodd" d="M183.228 56.0178L198.766 65.9038L200.574 66.1289L195.407 74.4587C195.407 74.4587 190.481 83.5153 188.455 90.9919L186.991 89.7754L189.951 70.7974L188.119 69.7823C188.119 69.7823 187.11 60.7929 183.224 56.0218L183.228 56.0178Z" fill="url(#paint52_linear_9_7878)"/>
<path fill-rule="evenodd" clip-rule="evenodd" d="M204.115 66.1289C204.115 66.1289 202.204 65.6233 200.574 66.1289C200.574 66.1289 187.47 83.1045 184.665 108.99L186.995 109.571C186.995 109.571 196.855 76.24 204.115 66.1289Z" fill="url(#paint53_linear_9_7878)"/>
<path fill-rule="evenodd" clip-rule="evenodd" d="M191.593 109.571C191.593 109.571 189.025 110.152 186.991 109.571C186.991 109.571 187.747 97.1534 191.593 87.9625C195.937 77.5829 204.111 66.1289 204.111 66.1289C204.111 66.1289 207.965 66.1289 209.939 72.3022C209.939 72.3022 199.363 84.5619 195.937 92.4375C192.918 99.3849 191.593 109.571 191.593 109.571Z" fill="url(#paint54_linear_9_7878)"/>
<path fill-rule="evenodd" clip-rule="evenodd" d="M212.93 134.845C212.93 134.845 192.503 159.818 172.011 159.818C152.735 159.818 145.783 141.725 145.783 141.725L147.006 141.188C147.006 141.188 153.091 158.566 172.324 158.566C191.557 158.566 212.266 134.612 212.266 134.612L212.934 134.849L212.93 134.845Z" fill="url(#paint55_radial_9_7878)"/>
<path fill-rule="evenodd" clip-rule="evenodd" d="M135.303 149.036L136.964 147.819C136.964 147.819 142.357 171.987 172.004 171.987C201.65 171.987 223.391 139.944 223.391 139.944L226.561 141.133L224.195 137.795C224.195 137.795 191.695 172.473 169.02 169.724C146.357 166.975 136.062 145.185 136.062 145.185L135.303 149.036Z" fill="url(#paint56_linear_9_7878)"/>
<path fill-rule="evenodd" clip-rule="evenodd" d="M224.195 137.807C224.195 137.807 200.574 169.843 170.678 169.843C142.772 169.843 136.07 145.189 136.07 145.189L140.984 143.538C140.984 143.538 148.062 164.969 172.174 165.186C198.469 165.423 218.592 136.618 218.592 136.618L224.195 137.803V137.807Z" fill="url(#paint57_radial_9_7878)"/>
<path fill-rule="evenodd" clip-rule="evenodd" d="M195.941 126.645L200.079 129.051C200.079 129.051 178.991 147.405 158.611 134.193L161.408 132.258C161.408 132.258 175.671 138.929 195.945 126.645H195.941Z" fill="url(#paint58_linear_9_7878)"/>
<path fill-rule="evenodd" clip-rule="evenodd" d="M208.97 138.103L197.1 131.286L196.115 131.938L208.412 138.664L208.97 138.103Z" fill="url(#paint59_linear_9_7878)"/>
<path fill-rule="evenodd" clip-rule="evenodd" d="M199.292 146.753L191.272 134.754L190.283 135.192L198.465 147.393L199.292 146.753Z" fill="url(#paint60_linear_9_7878)"/>
<path fill-rule="evenodd" clip-rule="evenodd" d="M190.283 152.907L184.079 137.59L183.224 137.799L189.329 153.444L190.283 152.907Z" fill="url(#paint61_linear_9_7878)"/>
<path fill-rule="evenodd" clip-rule="evenodd" d="M178.409 158.041L175.521 138.96L174.757 138.976L177.333 158.179L178.409 158.041Z" fill="url(#paint62_linear_9_7878)"/>
<path fill-rule="evenodd" clip-rule="evenodd" d="M164.815 157.563L169.076 138.285L168.19 138.103L164.043 157.382L164.815 157.563Z" fill="url(#paint63_linear_9_7878)"/>
<path fill-rule="evenodd" clip-rule="evenodd" d="M151.584 148.866L161.954 135.836L161.404 135.366L150.982 148.116L151.584 148.866Z" fill="url(#paint64_linear_9_7878)"/>
<path d="M173.487 128.202C173.487 128.202 166.793 125.338 162.492 126.649C162.492 126.649 157.333 145.738 155.671 154.451C155.671 154.451 156.158 157.674 161.297 157.077L170.738 129.635L173.487 128.205V128.202Z" fill="url(#paint65_linear_9_7878)"/>
<path fill-rule="evenodd" clip-rule="evenodd" d="M170.737 129.631L175.153 127.246C175.153 127.246 168.569 122.719 161.404 124.386L162.152 127.913C162.152 127.913 166.077 126.294 170.737 129.635V129.631Z" fill="url(#paint66_radial_9_7878)"/>
<path fill-rule="evenodd" clip-rule="evenodd" d="M161.297 157.073L162.801 152.705C162.801 152.705 160.193 150.395 156.411 150.884L155.671 154.447C155.671 154.447 155.671 158.207 161.297 157.073Z" fill="url(#paint67_radial_9_7878)"/>
<path style="mix-blend-mode:multiply" fill-rule="evenodd" clip-rule="evenodd" d="M217.469 183.615L206.236 173.776L208.266 180.207L206.612 196.945L214.96 183.801L217.469 183.615Z" fill="url(#paint68_linear_9_7878)"/>
<path d="M199.81 209.473C199.81 209.473 172.74 196.945 144.684 203.466L145.131 208.233C145.131 208.233 168.605 203.415 199.177 213.34L199.81 209.473Z" fill="url(#paint69_linear_9_7878)"/>
<path style="mix-blend-mode:multiply" fill-rule="evenodd" clip-rule="evenodd" d="M200.079 189.488C200.079 189.488 195.007 194.18 190.283 194.777C185.559 195.373 171.663 192.134 171.663 192.134C171.663 192.134 191.51 194.528 200.079 189.488Z" fill="url(#paint70_linear_9_7878)"/>
<path style="mix-blend-mode:multiply" fill-rule="evenodd" clip-rule="evenodd" d="M153.317 192.944C153.317 192.944 142.725 193.88 139.132 193.493L141.815 195.069C141.815 195.069 150.072 193.418 153.321 192.944H153.317Z" fill="url(#paint71_linear_9_7878)"/>
<path style="mix-blend-mode:multiply" fill-rule="evenodd" clip-rule="evenodd" d="M216.309 279.37L220.697 268.86L226.565 266.483L246.601 268.86L246.616 268.844C246.086 267.644 245.441 266.483 245.441 266.483C245.441 266.483 245.342 265.507 245.283 263.947C245.228 261.984 245.255 259.093 245.655 256L236.175 251.948L228.487 254.037C228.586 256.269 228.531 258.03 228.23 258.962C228.072 259.464 227.728 259.922 227.253 260.353C224.214 263.145 215.823 264.535 215.593 266.396C215.32 268.544 216.309 279.366 216.309 279.366V279.37Z" fill="url(#paint72_linear_9_7878)"/>
<path style="mix-blend-mode:multiply" fill-rule="evenodd" clip-rule="evenodd" d="M214.96 285.986C216.566 287.874 219.534 288.407 219.534 288.407L222.303 287.605L228.943 289.481L235.123 291.101L236.828 292.088C239.067 292.432 241.663 292.088 241.663 292.088C241.865 291.8 242.051 291.46 242.252 291.085L237.303 289.912L236.171 287.25L222.846 284.272L220.222 285.216L216.305 283.912V279.374L214.956 285.99L214.96 285.986Z" fill="url(#paint73_linear_9_7878)"/>
<path fill-rule="evenodd" clip-rule="evenodd" d="M228.226 258.966C228.068 259.468 227.724 259.926 227.249 260.357C232.658 266.929 242.438 264.753 245.279 263.951C245.236 262.636 245.236 260.902 245.35 258.97C245.437 257.797 245.552 256.549 245.754 255.277C245.869 254.563 245.999 253.832 246.154 253.117C247.214 248.235 251.847 235.45 253.857 226.287V226.259C254.316 224.213 254.632 222.337 254.747 220.777C246.731 209.339 232.171 207.175 232.171 207.175C231.309 207.747 230.521 208.533 229.805 209.481L229.789 209.497C228.669 210.943 227.708 212.748 226.877 214.707C226.976 217.543 226.905 220.493 226.806 223.641C226.735 225.659 226.648 227.78 226.604 229.984C226.43 237.859 229.473 255.21 228.226 258.978V258.966Z" fill="url(#paint74_linear_9_7878)"/>
<path d="M228.226 258.966C228.226 258.966 236.317 263.074 245.35 258.966C245.481 257.134 245.71 255.115 246.154 253.109C247.214 248.227 251.847 235.442 253.857 226.279V226.251C253.857 226.251 246.874 216.243 234.679 214.252C234.679 214.252 229.833 216.101 226.806 223.629C226.735 225.647 226.648 227.768 226.604 229.972C226.43 237.848 229.473 255.198 228.226 258.966Z" fill="url(#paint75_radial_9_7878)"/>
<path style="mix-blend-mode:multiply" fill-rule="evenodd" clip-rule="evenodd" d="M228.226 258.966C228.068 259.468 227.724 259.926 227.249 260.357C232.658 266.929 242.438 264.753 245.279 263.951C245.236 262.636 245.236 260.902 245.35 258.97C245.437 257.797 245.552 256.549 245.754 255.277C245.18 255.277 235.083 256.995 233.366 245.02C231.265 230.339 231.269 216.689 231.269 216.689L229.805 209.473L229.789 209.489C228.669 210.935 227.708 212.74 226.877 214.699C226.976 217.535 226.905 220.485 226.806 223.633C226.735 225.651 226.648 227.772 226.604 229.976C226.43 237.852 229.473 255.202 228.226 258.97V258.966Z" fill="url(#paint76_linear_9_7878)"/>
<path style="mix-blend-mode:multiply" fill-rule="evenodd" clip-rule="evenodd" d="M78.9493 272.814C78.9493 272.814 80.4963 276.752 83.254 277.94H84.445L90.8981 282.593L94.2414 285.702C94.2414 285.702 94.6015 287.605 95.3176 288.565C95.3176 288.565 97.8854 291.298 100.968 291.069L105.241 283.912C105.241 283.912 114.922 276.266 115.168 274.248C115.397 272.213 108.224 266.372 107.868 262.079C107.611 258.97 114.768 246.975 119.385 238.298L119.457 238.168C120.762 235.707 121.85 233.531 122.499 231.896V231.88C122.713 231.335 122.887 230.865 123.002 230.45C123.132 229.948 123.259 229.463 123.389 228.989L121.625 225.165C121.625 225.165 115.642 231.295 113.019 238.092C110.38 244.894 106.495 262.162 106.495 262.162V275.432L104.172 281.404L100.113 288.32L95.5669 285.342V281.764L85.9999 275.551H83.2619L78.9572 272.818L78.9493 272.814Z" fill="url(#paint77_linear_9_7878)"/>
<path style="mix-blend-mode:multiply" d="M188.902 211.385V216.231C188.902 216.231 163.323 210.765 145.265 213.81C145.265 213.81 164.225 211.883 178.746 216.231L145.214 218.613V219.509C145.214 219.509 171.754 215.84 189.682 221.03L188.902 226.255C188.902 226.255 167.133 222.74 144.937 225.169V226.255C144.937 226.255 168.542 225.394 181.923 227.697L176.502 234.668L145.625 230.094L146.223 230.975L173.096 235.948L172.32 238.566L152.055 239.593L152.569 240.356H173.491L167.307 245.727L155.908 245.293L166.765 246.924L197.927 231.884L197.899 230.513C197.899 230.513 198.125 219.383 199.015 214.256L200.075 208.142C200.075 208.142 194.991 205.749 188.898 203.999V211.385H188.902Z" fill="url(#paint78_linear_9_7878)"/>
<path fill-rule="evenodd" clip-rule="evenodd" d="M156.799 265.159C156.799 265.159 140.161 300.726 134.104 325.068C134.104 325.068 142.769 353.94 153.285 364.92C153.285 364.92 179.102 356.566 193.682 328.65L166.302 267.529L156.795 265.163L156.799 265.159Z" fill="url(#paint79_radial_9_7878)"/>
<path fill-rule="evenodd" clip-rule="evenodd" d="M134.104 325.068L134.923 321.955C134.923 321.955 140.988 339.563 155.081 354.599C155.081 354.599 174.492 343.678 191.32 323.369L193.686 328.65C193.686 328.65 182.512 354.121 153.289 364.92C153.289 364.92 140.201 350.124 134.108 325.068H134.104Z" fill="url(#paint80_linear_9_7878)"/>
<path style="mix-blend-mode:multiply" fill-rule="evenodd" clip-rule="evenodd" d="M136.873 334.535C136.873 334.535 143.619 298.897 154.563 283.545L153.317 327.137L157.218 337.312L161.713 277.459L171.303 314.577L191.308 333.089L193.686 328.646L163.505 270.543L156.795 265.159L139.129 290.844L135.358 328.468L136.873 334.535Z" fill="url(#paint81_linear_9_7878)"/>
<path d="M201.334 340.633L196.673 349.938L202.41 343.437C203.371 341.735 204.202 340.072 204.934 338.512C208.261 331.355 209.223 326.142 209.223 326.142L205.994 323.278L208.333 309.131C210.829 305.193 211.917 299.466 211.917 299.466L209.049 295.358C208.503 286.768 210.295 275.673 210.295 275.673L207.427 269.401L209.049 263.86C205.405 257.947 202.853 251.877 201.203 247.267C199.553 242.658 198.821 239.522 198.821 239.522H190.544L163.493 270.535C172.399 301.417 201.33 340.633 201.33 340.633H201.334Z" fill="url(#paint82_linear_9_7878)"/>
<path d="M134.096 309.494C134.096 309.494 131.057 318.8 130.697 324.712L136.877 334.535L135.358 328.464C135.358 328.464 145.427 287.214 157.875 269.192C158.076 268.892 158.274 268.604 158.476 268.331L158.203 267.758L147.805 246.241L144.565 239.526L141.51 237.895L136.877 254.219V267.533C136.877 267.533 134.642 275.492 130.697 278.185C130.697 278.185 130.713 278.272 130.741 278.442C130.756 278.513 130.768 278.612 130.784 278.73C130.8 278.845 130.812 278.959 130.839 279.102C131.643 283.438 134.883 302.223 134.096 309.498V309.494Z" fill="url(#paint83_linear_9_7878)"/>
<path style="mix-blend-mode:multiply" fill-rule="evenodd" clip-rule="evenodd" d="M201.334 340.633L196.673 349.939L202.41 343.437C203.371 341.735 204.202 340.072 204.934 338.512L202.295 337.308C186.03 319.613 170.124 279.366 170.124 279.366H174.73C186.679 303.463 199.415 319.096 199.415 319.096C189.875 305.754 180.095 283.545 180.095 283.545L178.39 262.154C186.279 279.319 208.337 309.131 208.337 309.131C210.833 305.193 211.921 299.466 211.921 299.466C195.743 292.708 180.581 259.192 180.111 258.145C188.285 272.217 209.053 295.354 209.053 295.354C208.507 286.764 210.299 275.669 210.299 275.669C196.285 271.159 182.39 255.254 181.527 254.25C191.078 263.185 207.431 269.397 207.431 269.397L209.053 263.856C200.519 262.88 185.258 253.749 185.258 253.749C187.755 251.087 194.94 248.824 201.207 247.264C199.557 242.654 198.825 239.518 198.825 239.518H190.548L163.497 270.531C172.403 301.413 201.334 340.629 201.334 340.629V340.633Z" fill="url(#paint84_linear_9_7878)"/>
<path style="mix-blend-mode:multiply" fill-rule="evenodd" clip-rule="evenodd" d="M134.096 325.072L130.697 324.712L136.877 334.535L135.358 328.464C135.358 328.464 145.427 287.214 157.875 269.192L158.203 267.762L147.805 246.245L147.433 247.777C147.433 247.777 141.253 255.309 136.877 254.219V267.533L147.433 253.117L150.057 252.931C150.057 252.931 140.102 274.678 130.693 278.189C130.693 278.189 130.709 278.276 130.737 278.446C130.752 278.517 130.764 278.616 130.78 278.734C130.796 278.849 130.808 278.963 130.836 279.106C131.639 283.442 134.879 302.227 134.092 309.502C134.092 309.502 144.418 276.301 151.247 264.946L150.057 274.97L134.092 325.083L134.096 325.072Z" fill="url(#paint85_linear_9_7878)"/>
<path fill-rule="evenodd" clip-rule="evenodd" d="M140.193 237.018L143.247 239.052C143.247 239.052 151.378 256.936 160.098 270.535C160.098 270.535 182.358 244.605 192.799 237.891L200.072 238.207V227.583L197.907 226.808L188.898 225.019C188.898 225.019 172.289 235.584 164.043 246.497H159.24L144.695 225.019H143.247L140.193 237.018Z" fill="url(#paint86_linear_9_7878)"/>
<path fill-rule="evenodd" clip-rule="evenodd" d="M160.098 270.539H163.505C163.505 270.539 182.686 249.72 193.804 239.518H198.825L200.079 238.207L192.803 237.887C192.803 237.887 174.983 250.016 160.102 270.539H160.098Z" fill="url(#paint87_linear_9_7878)"/>
<path style="mix-blend-mode:multiply" d="M188.898 225.019L192.803 237.891L200.072 238.207V227.583L197.907 226.808L188.898 225.019Z" fill="url(#paint88_linear_9_7878)"/>
<path d="M143.247 225.019L157.764 245.96L159.24 246.497L144.695 225.019H143.247Z" fill="#FFFF00"/>
<path style="mix-blend-mode:multiply" fill-rule="evenodd" clip-rule="evenodd" d="M153.289 364.916V340.017L148.359 358.205C149.823 360.808 151.247 362.676 153.289 364.916Z" fill="url(#paint89_linear_9_7878)"/>
<g style="mix-blend-mode:soft-light">
<path fill-rule="evenodd" clip-rule="evenodd" d="M155.536 242.749L150.06 252.923L143.247 239.052L146.223 230.975L155.536 242.749Z" fill="#FFFF00"/>
</g>
<path style="mix-blend-mode:screen" opacity="0.8" fill-rule="evenodd" clip-rule="evenodd" d="M240.227 153.444C240.227 153.444 230.379 158.843 217.468 154.052L226.561 141.133C226.561 141.133 239.499 145.102 240.227 153.444Z" fill="url(#paint90_linear_9_7878)"/>
<path style="mix-blend-mode:screen" opacity="0.5" fill-rule="evenodd" clip-rule="evenodd" d="M135.302 149.036L139.132 158.175C139.132 158.175 132.149 161.829 122.998 161.418C122.998 161.418 126.804 156.031 135.302 149.032V149.036Z" fill="url(#paint91_linear_9_7878)"/>
<path style="mix-blend-mode:screen" opacity="0.8" fill-rule="evenodd" clip-rule="evenodd" d="M254.759 218.522L243.934 207.463C243.934 207.463 242.791 199.896 243.934 196.041C243.934 196.041 253.857 209.477 254.759 218.526V218.522Z" fill="url(#paint92_linear_9_7878)"/>
<path style="mix-blend-mode:screen" opacity="0.5" fill-rule="evenodd" clip-rule="evenodd" d="M253.857 226.279L246.154 253.109C246.154 253.109 249.093 230.971 247.914 220.256C247.914 220.256 252.235 223.66 253.853 226.279H253.857Z" fill="url(#paint93_linear_9_7878)"/>
<path style="mix-blend-mode:multiply" fill-rule="evenodd" clip-rule="evenodd" d="M126.934 175.747L133.839 180.206L136.806 189.366C137.684 191.471 138.4 192.92 138.4 192.92L140.984 194.654L130.218 211.867V194.654L132.897 183.974L126.934 175.747Z" fill="url(#paint94_linear_9_7878)"/>
<path style="mix-blend-mode:multiply" fill-rule="evenodd" clip-rule="evenodd" d="M168.423 136.365C168.423 136.365 165.444 130.587 161.697 129.631L161.408 130.725C161.408 130.725 166.777 133.569 168.19 138.103L168.423 136.365Z" fill="url(#paint95_linear_9_7878)"/>
<path style="mix-blend-mode:multiply" fill-rule="evenodd" clip-rule="evenodd" d="M165.681 144.332C165.681 144.332 163.244 140.568 159.03 139.948L158.749 141.077C158.749 141.077 162.559 140.975 165.278 145.521L165.685 144.332H165.681Z" fill="url(#paint96_linear_9_7878)"/>
<path style="mix-blend-mode:multiply" d="M243.764 181.613C243.764 181.613 233.425 188.556 219.035 187.494L219.332 188.248C219.332 188.248 230.604 190.511 243.863 182.77L243.764 181.616V181.613Z" fill="url(#paint97_linear_9_7878)"/>
<path style="mix-blend-mode:multiply" d="M139.738 196.625C139.738 196.625 132.367 185.353 118.922 182.13L118.796 182.963C118.796 182.963 131.749 185.87 139.362 197.281L139.738 196.621V196.625Z" fill="url(#paint98_linear_9_7878)"/>
<path style="mix-blend-mode:screen" opacity="0.8" fill-rule="evenodd" clip-rule="evenodd" d="M119.453 189.37C119.453 189.37 119.045 198.426 117.253 203.462C117.253 203.462 109.126 206.207 105.296 209.469C105.296 209.469 110.898 196.906 119.453 189.366V189.37Z" fill="url(#paint99_linear_9_7878)"/>
<path style="mix-blend-mode:screen" opacity="0.8" fill-rule="evenodd" clip-rule="evenodd" d="M199.529 378.344L193.686 367.965C193.686 367.965 191.889 405.364 185.614 425.408C185.614 425.408 202.889 399.874 199.525 378.348L199.529 378.344Z" fill="url(#paint100_linear_9_7878)"/>
<path fill-rule="evenodd" clip-rule="evenodd" d="M106.111 282.684V282.7L107.433 283.818C108.766 284.947 110.099 286.093 111.464 287.254L119.552 294.154C174.841 341.289 244.662 400.747 244.662 400.747L242.438 391.639C242.438 391.639 175.687 335.242 121.977 289.268C121.977 289.268 120.616 288.095 118.808 286.547C118.305 286.116 117.775 285.674 117.245 285.216C115.437 283.656 113.474 281.981 112.054 280.764C111.809 280.551 111.567 280.35 111.322 280.148C110.574 279.505 110.087 279.074 110.016 279.019C109.617 278.675 106.345 279.935 106.115 282.684H106.111Z" fill="url(#paint101_linear_9_7878)"/>
<path fill-rule="evenodd" clip-rule="evenodd" d="M224.226 371.946C230.909 377.803 234.81 388.882 240.076 400.537C245.339 412.193 257.576 417.375 257.576 417.375C256.069 415.372 254.894 413.382 253.932 411.391C249.714 402.67 249.73 394.111 244.666 386.149C241.382 380.979 235.859 377.314 231.384 374.995C227.396 372.918 224.226 371.946 224.226 371.946Z" fill="url(#paint102_linear_9_7878)"/>
<path d="M106.111 282.684V282.7L107.432 283.818L111.464 287.254L119.551 294.154C119.911 291.705 120.339 290.646 121.977 289.272C121.977 289.272 120.616 288.099 118.808 286.551C118.305 286.12 117.775 285.678 117.245 285.22C115.437 283.66 113.474 281.985 112.054 280.768C111.808 280.555 111.567 280.354 111.322 280.152C110.574 279.508 110.087 279.078 110.016 279.023C109.616 278.679 106.344 279.939 106.115 282.688L106.111 282.684Z" fill="url(#paint103_linear_9_7878)"/>
<g style="mix-blend-mode:soft-light">
<path d="M231.34 374.983C235.17 379.15 235.214 389.47 242.039 400.755C248.852 412.023 253.857 411.664 253.857 411.664L253.928 411.391C249.711 402.67 249.726 394.111 244.662 386.149C241.378 380.979 235.855 377.313 231.38 374.995L231.336 374.979L231.34 374.983Z" fill="#FFFF00"/>
</g>
<path fill-rule="evenodd" clip-rule="evenodd" d="M241.473 182.13L242.145 184.654L238.027 186.625L237.441 183.655L241.473 182.13Z" fill="#FFFF00"/>
<path fill-rule="evenodd" clip-rule="evenodd" d="M251.894 217.333L250.601 222.586L247.918 220.256L248.417 214.252L251.894 217.333Z" fill="#FFFF00"/>
<path fill-rule="evenodd" clip-rule="evenodd" d="M188.902 203.995V205.603L184.823 204.509V202.885L188.902 203.995Z" fill="#FFFF00"/>
<path fill-rule="evenodd" clip-rule="evenodd" d="M243.427 264.393V259.725L240.674 260.44V264.82L243.427 264.393Z" fill="#FFFF00"/>
<path fill-rule="evenodd" clip-rule="evenodd" d="M120.992 181.613L120.351 184.322L118.689 183.655L119.097 181.008L120.992 181.613Z" fill="#FFFF00"/>
<path fill-rule="evenodd" clip-rule="evenodd" d="M105.296 209.473L103.353 214.987L99.468 217.89C99.468 217.89 100.908 213.439 102.443 211.377C102.443 211.377 104.635 209.908 105.296 209.473Z" fill="#FFFF00"/>
<path fill-rule="evenodd" clip-rule="evenodd" d="M95.816 254.215L94.0751 256L92.718 253.915L94.269 252.923L95.816 254.215Z" fill="#FFFF00"/>
<path fill-rule="evenodd" clip-rule="evenodd" d="M246.541 389.593C246.541 389.593 238.593 385.971 235.332 384.423C235.332 384.423 233.338 377.44 231.38 374.995C231.38 374.995 243.222 379.79 246.541 389.593Z" fill="#FFFF00"/>
<g style="mix-blend-mode:soft-light">
<path fill-rule="evenodd" clip-rule="evenodd" d="M225.366 377.199L226.315 382.294L144.454 312.042L131.821 297.689L225.366 377.199Z" fill="#FFFF00"/>
</g>
<path fill-rule="evenodd" clip-rule="evenodd" d="M192.234 413.484L190.845 411.664C190.845 411.664 185.397 426.66 183.438 431.759L183.66 432.834C183.66 432.834 189.856 422.142 192.234 413.484Z" fill="#FFFF00"/>
<path fill-rule="evenodd" clip-rule="evenodd" d="M205.223 12.8324L202.596 10.4389L202.291 19.9852L204.859 22.2167L205.223 12.8324Z" fill="#FFFF00"/>
<path fill-rule="evenodd" clip-rule="evenodd" d="M186.991 7.12516L184.661 5.73883L183.224 12.3031L185.606 15.7986L186.991 7.12516Z" fill="#FFFF00"/>
<path fill-rule="evenodd" clip-rule="evenodd" d="M201.785 69.5572H198.247L195.996 73.5029H199.268L201.785 69.5572Z" fill="#FFFF00"/>
<g style="mix-blend-mode:soft-light">
<path fill-rule="evenodd" clip-rule="evenodd" d="M32.2736 202.21H28.0757C28.0757 202.21 21.6106 189.133 11.4858 186.064C11.4858 186.064 28.222 185.629 32.2736 202.21Z" fill="#FFFF00"/>
</g>
<g style="mix-blend-mode:soft-light">
<path fill-rule="evenodd" clip-rule="evenodd" d="M34.9007 210.465C34.9007 210.465 54.8181 234.727 73.5128 247.971L72.3456 248.859C72.3456 248.859 47.6606 229.451 33.0609 213.336L34.9007 210.465Z" fill="#FFFF00"/>
</g>
<path fill-rule="evenodd" clip-rule="evenodd" d="M40.7209 217.207L37.255 217.783L32.2737 212.495L34.9009 210.465L40.7209 217.207Z" fill="#FFFF00"/>
<path fill-rule="evenodd" clip-rule="evenodd" d="M28.2379 193.762H22.311L19.4069 190.799L22.7818 189.441C22.7818 189.441 26.2834 190.819 28.234 193.766L28.2379 193.762Z" fill="#FFFF00"/>
<path style="mix-blend-mode:screen" opacity="0.5" fill-rule="evenodd" clip-rule="evenodd" d="M228.543 182.13C228.543 182.13 221.385 175.57 218.588 167.812C218.588 167.812 218.901 172.359 219.739 178.638C220.574 184.918 228.543 182.13 228.543 182.13Z" fill="url(#paint104_linear_9_7878)"/>
<path style="mix-blend-mode:screen" opacity="0.8" fill-rule="evenodd" clip-rule="evenodd" d="M137.265 171.027C137.265 171.027 134.626 184.144 138.397 192.92C138.397 192.92 135.037 186.696 133.835 180.206C133.835 180.206 134.689 174.096 137.261 171.027H137.265Z" fill="url(#paint105_linear_9_7878)"/>
<g style="mix-blend-mode:soft-light">
<path fill-rule="evenodd" clip-rule="evenodd" d="M170.555 81.7063L171.232 67.14C171.232 67.14 160.537 68.321 158.1 69.5611L162.516 82.4172C165.155 81.8129 167.746 81.5523 170.552 81.7063H170.555Z" fill="#FFFF00"/>
</g>
<path style="mix-blend-mode:screen" opacity="0.3" fill-rule="evenodd" clip-rule="evenodd" d="M3.58858 191.423C10.378 204.761 18.1606 210.291 29.9393 212.898L29.9512 212.882C24.7364 198.991 19.1181 192.96 5.4996 189.077V185.112C5.4996 185.112 20.2022 184.464 27.3675 191.234C33.0017 196.554 34.8415 208.83 34.8929 209.185H34.8969C34.8969 209.185 40.9939 216.614 56.7687 232.362C59.202 234.791 65.307 240.265 73.8888 247.785L87.9029 259.981C87.9029 259.981 87.9306 260.005 87.9465 260.021C89.9564 257.663 91.7289 255.597 92.7102 253.919V253.903C93.1691 253.117 93.4579 252.414 93.5133 251.814C93.5133 251.814 93.5134 251.742 93.5292 251.612C93.5292 251.541 93.5292 251.426 93.545 251.312C93.6795 249.855 93.9209 246.892 94.2809 243.259C94.3205 242.864 94.36 242.465 94.4036 242.054C94.4154 241.932 94.4273 241.813 94.4392 241.691C94.5104 240.999 94.5856 240.292 94.6647 239.57V239.558C94.8309 238.061 95.0129 236.505 95.2147 234.929L95.2226 234.877C95.3215 234.099 95.4244 233.321 95.5351 232.539C95.5391 232.512 95.5431 232.48 95.547 232.452C95.6459 231.749 95.7488 231.046 95.8517 230.347C95.8675 230.245 95.8833 230.138 95.8992 230.035C96.002 229.376 96.1049 228.72 96.2117 228.072C96.2473 227.863 96.2829 227.654 96.3185 227.444C96.4056 226.935 96.4966 226.429 96.5876 225.935C96.639 225.647 96.6944 225.363 96.7498 225.082C96.8289 224.664 96.912 224.253 96.9951 223.846C97.0545 223.566 97.1098 223.293 97.1692 223.021C97.2721 222.547 97.3789 222.081 97.4857 221.63C97.553 221.35 97.6203 221.085 97.6915 220.817C97.7587 220.556 97.826 220.299 97.8972 220.047C97.9486 219.861 97.9961 219.66 98.0476 219.482L98.0594 219.47C98.3324 218.53 98.6173 217.685 98.918 216.942L98.9259 216.922C99.0684 216.575 99.2108 216.251 99.3572 215.955C99.369 215.931 99.3809 215.903 99.3928 215.88C99.5431 215.58 99.6974 215.295 99.8557 215.054C100.516 214.039 101.419 212.791 102.435 211.373C102.435 211.373 102.451 211.373 102.451 211.357C104.283 208.869 106.554 205.891 108.794 202.862C110.4 200.148 112.501 196.961 115.013 193.963C116.537 191.554 117.656 189.453 118.024 187.979C118.289 186.929 118.527 185.432 118.76 183.682L118.681 183.651L118.859 182.481L118.914 182.126L119.085 181.004H119.089C120.003 173.251 120.936 162.86 122.986 161.418C122.986 161.418 126.792 156.031 135.291 149.032L136.05 145.181C136.05 145.181 136.118 145.161 136.24 145.122L140.755 143.605C140.889 143.558 141.024 143.51 141.162 143.459L145.558 141.8C145.629 141.772 145.7 141.745 145.776 141.713C145.922 141.654 146.084 141.579 146.238 141.512L146.927 141.208C150.543 139.517 155.56 136.247 158.638 134.158L160.902 132.59C161.424 130.599 161.859 128.952 162.14 127.905L161.392 124.378C160.134 121.061 158.603 115.31 157.689 112.32C157.123 110.444 156.613 108.58 156.241 107.016H155.651C155.651 107.016 155.734 106.269 155.809 104.946C155.687 104.239 155.627 103.682 155.667 103.374C155.683 103.188 155.778 102.758 155.912 102.177C156.055 94.7599 155.319 80.0751 148.514 67.0966L151.746 65.3232C153.768 65.0585 155.821 65.1849 157.487 65.4101C157.978 65.4693 158.48 65.5444 158.987 65.6352C161.436 55.0304 168.312 25.7754 171.988 15.1508V15.135H171.992C172.435 13.8554 172.831 12.8363 173.167 12.1689C173.408 11.6909 173.669 11.2249 173.946 10.7707C178.136 3.93385 185.915 0 185.915 0L188.119 1.55221L185.602 15.7946L178.864 53.9403C179.252 53.9245 179.628 53.9521 179.992 54.0469C181.215 54.359 182.291 55.2871 183.228 56.5471V56.0139L186.042 44.4414L188.906 32.6596L196.317 2.14861C203.668 3.76006 205.282 9.66478 205.282 9.66478C205.282 9.66478 205.282 10.6798 205.227 12.8324V12.8482C205.172 14.8744 205.069 17.9274 204.871 22.1141V22.2168H204.867C204.697 25.7793 204.459 30.1437 204.123 35.4362C203.272 48.7584 202.675 61.2827 202.461 65.9077C203.399 65.9354 204.123 66.1289 204.123 66.1289C204.123 66.1289 207.977 66.1289 209.951 72.3022C209.951 72.3022 199.375 84.5619 195.949 92.4375C195.478 93.5236 195.051 94.6888 194.663 95.8816C195.395 95.2931 196.467 94.673 197.761 94.673C197.761 94.673 200.317 95.3879 200.586 98.5673C200.586 98.5673 195.905 106.19 194.651 110.246C194.651 110.246 192.863 111.167 191.608 109.575C191.87 113.098 192.289 115.804 192.914 118.458C193.563 121.171 194.52 124.106 195.953 126.653L199.715 128.837C204.728 131.618 209.29 133.557 213.089 134.9L218.386 136.559C218.525 136.595 218.659 136.634 218.794 136.666L224.119 137.791L224.214 137.803L226.569 141.121C226.632 141.145 226.699 141.172 226.762 141.2C227.392 141.405 229.671 142.211 232.191 143.617C234.711 144.881 237.251 146.386 239.004 148.013C243.839 152.496 245.457 161.616 244.211 170.392C243.716 173.828 243.59 177.537 243.748 181.222L243.784 181.62L243.883 182.774L243.954 183.611C243.954 183.611 243.914 183.631 243.894 183.643C244.274 188.513 245.137 193.225 246.359 197.048C247.629 201.053 249.805 204.951 251.641 208.834C251.823 209.213 251.997 209.596 252.172 209.979C252.302 210.267 252.429 210.556 252.555 210.844C252.634 211.026 252.714 211.211 252.789 211.393C253.529 213.162 254.134 214.932 254.494 216.705C254.502 216.745 254.51 216.788 254.522 216.828C254.632 217.392 254.727 217.957 254.787 218.526C254.858 219.17 254.846 219.928 254.771 220.773C254.735 221.271 254.672 221.812 254.593 222.373C254.581 222.468 254.565 222.562 254.553 222.661C254.482 223.159 254.395 223.672 254.296 224.209C254.28 224.3 254.265 224.387 254.249 224.482C254.162 224.944 254.063 225.418 253.96 225.9C253.932 226.026 253.912 226.145 253.885 226.271V226.291C253.73 226.998 253.556 227.733 253.37 228.479C253.339 228.609 253.303 228.744 253.271 228.874C253.129 229.451 252.979 230.035 252.82 230.628C252.777 230.794 252.733 230.959 252.686 231.125C252.528 231.706 252.369 232.29 252.203 232.883C252.16 233.041 252.116 233.199 252.069 233.357C251.879 234.028 251.681 234.704 251.483 235.379C251.463 235.45 251.444 235.517 251.424 235.588C251.222 236.268 251.02 236.951 250.814 237.626C250.644 238.187 250.474 238.74 250.304 239.293C250.284 239.356 250.264 239.424 250.245 239.487C249.58 241.643 248.927 243.721 248.334 245.636L246.185 253.121C245.979 254.041 245.833 254.961 245.706 255.87C245.679 256.067 245.655 256.265 245.631 256.462V256.474C245.552 257.126 245.493 257.762 245.441 258.386C245.275 260.554 245.267 262.513 245.311 263.963C245.37 265.523 245.469 266.498 245.469 266.498C245.469 266.498 246.114 267.66 246.644 268.86C246.973 269.646 247.261 270.464 247.261 270.965C247.261 272.138 245.066 285.682 242.284 291.097C242.082 291.468 241.896 291.812 241.695 292.1C241.695 292.1 239.099 292.444 236.86 292.1L235.154 291.113L228.974 289.493L222.335 287.617L219.565 288.419C219.565 288.419 216.598 287.89 214.992 285.998L216.341 279.382C216.341 279.382 215.352 268.56 215.625 266.411C215.854 264.551 224.246 263.161 227.285 260.368C227.76 259.938 228.104 259.48 228.262 258.978C228.4 258.556 228.48 257.943 228.523 257.213C228.527 257.134 228.539 257.074 228.543 256.995C228.547 256.889 228.543 256.762 228.547 256.652C228.65 252.935 227.874 246.414 227.277 240.328C227.265 240.206 227.253 240.079 227.241 239.957C227.206 239.601 227.174 239.25 227.142 238.902C227.111 238.566 227.079 238.235 227.051 237.903C227.028 237.619 227 237.338 226.976 237.058C226.933 236.524 226.889 235.999 226.85 235.486C226.838 235.336 226.83 235.19 226.818 235.039C226.782 234.538 226.751 234.048 226.727 233.57C226.715 233.385 226.707 233.211 226.699 233.029C226.679 232.638 226.668 232.259 226.656 231.888C226.652 231.726 226.648 231.564 226.644 231.406C226.636 230.904 226.632 230.422 226.644 229.98C226.668 228.842 226.699 227.733 226.739 226.642C226.794 224.968 226.846 223.364 226.893 221.792C226.909 221.18 226.925 220.56 226.937 219.964C226.948 219.419 226.948 218.885 226.952 218.352C226.96 217.116 226.96 215.892 226.921 214.703C226.861 212.827 226.719 211.01 226.478 209.221C225.888 205.07 222.153 195.203 219.696 189.002H219.668L219.376 188.256L219.324 188.126L218.636 186.372C217.951 184.685 217.512 183.627 217.512 183.627L215.004 183.813C215.004 183.813 208.376 195.452 200.115 205.82L199.245 207.759C199.806 208.008 200.123 208.154 200.123 208.154L199.221 213.352L199.063 214.268C198.916 215.291 198.774 216.409 198.635 217.618C198.339 220.647 198.16 224.241 198.062 226.868L200.115 227.602V238.227H200.123L198.869 239.538C198.869 239.538 199.601 242.678 201.251 247.287C202.9 251.896 205.452 257.967 209.096 263.88L207.474 269.421L210.343 275.693C210.343 275.693 208.55 286.788 209.096 295.378L211.965 299.486C211.965 299.486 210.877 305.213 208.38 309.151L206.042 323.298L209.271 326.162C209.271 326.162 208.309 331.375 204.982 338.532C204.372 339.827 203.676 341.202 202.916 342.604C201.903 345.831 200.068 349.014 196.72 349.958L194.188 350.677L225.413 377.215C227.882 379.304 230.126 381.204 232.12 382.89C229.825 378.451 227.344 374.651 224.274 371.962C224.274 371.962 227.443 372.937 231.431 375.011C231.431 375.011 243.273 379.806 246.593 389.609H246.589C249.853 396.572 250.363 403.93 253.98 411.407C254.941 413.397 256.116 415.388 257.624 417.391C257.624 417.391 245.39 412.209 240.124 400.553C239.222 398.555 238.359 396.576 237.516 394.637C228.97 387.357 213.524 374.201 195.07 358.482C196.424 364.714 198.485 371.432 199.577 378.364C200.238 382.559 200.554 386.824 200.123 391.106C199.98 392.508 199.763 393.969 199.462 395.458C198.995 397.82 198.339 400.269 197.579 402.737C197.69 402.927 197.765 403.061 197.765 403.061L196.333 406.703C196.143 409.61 195.98 412.517 195.889 415.353V423.793C196.071 428.149 196.586 432.028 197.686 434.966C197.943 435.67 199.007 438.703 200.669 441.855C202.548 445.405 205.073 449.185 204.254 452.033C202.707 457.4 193.14 458.704 187.403 460.264C185.879 460.675 184.075 461.236 182.164 461.844C183.327 465.355 185.927 470.501 185.666 471.595C185.306 473.085 183.07 473.614 180.676 475.474L180.649 475.502C180.376 475.79 180.119 476.118 179.873 476.489C179.873 476.489 179.857 476.489 179.857 476.505C178.884 478.622 180.415 481.888 180.415 481.888H178.164C177.836 483.95 177.662 485.767 177.001 486.328C175.739 487.414 157.095 487.043 150.294 486.328L148.862 484.365L147.429 487.015C147.429 487.015 140.6 487.876 137.562 487.015C137.562 487.015 136.129 482.749 137.562 479.886L148.146 474.874C148.146 474.874 148.905 474.072 150.112 472.725V469.688C150.199 469.656 150.282 469.621 150.369 469.585C151.22 469.234 154.148 467.954 155.319 466.508L155.335 466.493V466.477C156.106 465.501 156.886 464.466 157.661 463.412C156.7 463.041 156.094 462.764 156.094 462.764L149.281 461.449C147.489 457.985 148.68 454.648 148.68 454.648L158.476 453.688C158.535 453.672 158.591 453.644 158.662 453.601C159.841 453.115 162.191 451.662 164.989 449.805C165.044 449.576 165.103 449.335 165.159 449.039C165.23 448.609 165.317 448.107 165.416 447.534C165.444 447.36 165.471 447.191 165.487 447.017C165.574 446.543 165.63 446.029 165.701 445.473C165.717 445.429 165.717 445.386 165.717 445.342C165.847 444.339 165.974 443.209 166.116 441.977C166.215 441.002 166.33 439.943 166.445 438.829C166.472 438.557 166.504 438.272 166.532 437.984C166.551 437.787 166.575 437.589 166.595 437.392C166.682 436.495 166.773 435.567 166.86 434.603C166.892 434.22 166.923 433.837 166.963 433.446C166.991 433.13 167.018 432.818 167.05 432.486C167.165 431.325 167.264 430.124 167.367 428.892C167.45 427.869 167.549 426.818 167.632 425.756C167.77 424.089 167.905 422.379 168.043 420.629C168.106 419.843 168.17 419.061 168.225 418.267V418.208C168.482 414.89 168.736 411.466 168.977 408.018C168.997 407.706 169.024 407.394 169.04 407.082C169.246 404.175 169.44 401.26 169.634 398.365C169.657 397.99 169.681 397.615 169.709 397.239C169.74 396.754 169.772 396.272 169.804 395.786C169.847 395.04 169.903 394.297 169.946 393.551C170.045 392.077 170.132 390.616 170.219 389.182C170.374 386.67 170.516 384.237 170.65 381.899L166.607 364.58C164.708 363.482 163.169 362.194 161.994 361.041C160.617 361.768 159.188 362.463 157.709 363.122C154.998 364.374 153.337 364.916 153.337 364.916C152.478 364.023 151.635 363 150.808 361.89C150.733 361.791 150.658 361.693 150.587 361.594C149.238 359.761 147.932 357.688 146.69 355.476C143.584 350.365 139.92 343.291 136.925 334.531V334.511L130.753 324.712C131.113 318.8 134.151 309.494 134.151 309.494C134.238 308.681 134.274 307.721 134.27 306.654C129.308 302.428 124.402 298.242 119.603 294.154L111.516 287.254C110.155 286.093 108.817 284.947 107.484 283.818L106.471 282.96C105.759 283.541 105.292 283.908 105.292 283.908L101.019 291.065C97.9368 291.294 95.369 288.561 95.369 288.561C94.6528 287.601 94.2928 285.698 94.2928 285.698L90.9495 282.589L84.4963 277.937H83.3054C80.5516 276.748 79.0007 272.81 79.0007 272.81C80.4132 269.753 82.431 266.866 84.5161 264.223L84.3143 264.05C79.5309 259.97 75.1628 256.241 71.3012 252.939L71.2775 252.919C61.4968 244.566 55.0081 239.013 53.5956 237.78C45.3857 230.596 27.5851 219.683 27.4269 219.588L27.4189 219.608C27.4189 219.608 15.8856 218.36 8.95367 211.981C2.02179 205.599 0.0474548 191.538 0.0474548 191.538L3.6321 191.416L3.58858 191.423ZM111.322 280.152C111.567 280.354 111.808 280.551 112.054 280.768C113.474 281.985 115.441 283.66 117.245 285.22C117.775 285.678 118.305 286.12 118.808 286.551C120.616 288.095 121.977 289.272 121.977 289.272C125.217 292.045 128.505 294.857 131.821 297.689L133.783 299.355C132.996 291.31 131.378 281.989 130.844 279.094C130.816 278.952 130.8 278.837 130.788 278.723C130.772 278.608 130.76 278.509 130.745 278.434C130.717 278.264 130.701 278.177 130.701 278.177C134.646 275.484 136.881 267.525 136.881 267.525V254.211L141.514 237.891L140.197 237.014L143.251 225.015H144.699L144.929 225.355C145.059 223.187 145.158 220.919 145.218 218.613V218.605C145.293 215.607 145.289 212.55 145.174 209.568L144.569 201.937C144.569 201.937 147.295 201.163 152.047 200.61C150.053 200.816 148.074 201.1 146.12 201.503L144.688 199.011L141.819 195.057C141.819 195.057 141.491 194.899 141 194.654L140.984 194.638L140.201 195.891L140.169 195.942L139.635 196.799L139.366 197.273C139.366 197.273 139.358 197.261 139.35 197.253L130.218 211.855C128.612 214.466 127.33 216.579 126.871 217.436C126.673 217.803 126.495 218.182 126.325 218.577C126.23 218.798 126.143 219.032 126.056 219.257C125.989 219.434 125.914 219.608 125.85 219.79C125.747 220.078 125.652 220.374 125.554 220.678C125.51 220.813 125.467 220.943 125.423 221.081C125.312 221.441 125.205 221.816 125.099 222.199C125.079 222.274 125.055 222.349 125.035 222.424C124.529 224.288 124.042 226.433 123.385 228.973C123.255 229.447 123.128 229.933 122.998 230.434C122.883 230.849 122.713 231.323 122.495 231.864V231.88C121.85 233.511 120.758 235.687 119.453 238.152L119.381 238.282C119.108 238.792 118.827 239.317 118.539 239.85C118.487 239.945 118.436 240.04 118.384 240.138C114.966 246.446 110.661 253.946 108.798 258.544C108.643 258.911 108.513 259.259 108.394 259.59C108.343 259.737 108.303 259.867 108.259 260.005C108.196 260.195 108.129 260.392 108.081 260.566C108.038 260.732 108.01 260.874 107.979 261.024C107.951 261.154 107.915 261.293 107.895 261.411C107.86 261.66 107.844 261.881 107.86 262.071C108.22 266.368 115.389 272.21 115.16 274.24C115.045 275.192 112.829 277.395 110.519 279.457C110.732 279.643 110.993 279.868 111.314 280.144L111.322 280.152Z" fill="url(#paint106_linear_9_7878)"/>
<path fill-rule="evenodd" clip-rule="evenodd" d="M195.727 361.527C195.727 361.527 201.694 378.297 201.959 382.294C202.521 390.821 199.411 399.688 196.518 406.079C193.626 412.469 184.273 434.358 184.273 434.358C184.273 434.358 195.727 407.801 198.338 396.687C201.029 385.233 198.406 371.01 195.731 361.527H195.727Z" fill="#FFFFBA"/>
<path fill-rule="evenodd" clip-rule="evenodd" d="M3.58863 191.423C3.58863 191.423 9.5749 207.167 29.3221 211.29L29.9393 212.902L29.0333 214.13C29.0333 214.13 11.8697 213.952 3.58863 191.427V191.423Z" fill="#FFFFBA"/>
<defs>
<linearGradient id="paint0_linear_9_7878" x1="169.024" y1="358.537" x2="169.024" y2="286.211" gradientUnits="userSpaceOnUse">
<stop stop-color="#2E1339"/>
<stop offset="1" stop-color="#222747"/>
</linearGradient>
<linearGradient id="paint1_linear_9_7878" x1="20.202" y1="212.902" x2="20.202" y2="185.092" gradientUnits="userSpaceOnUse">
<stop offset="0.02" stop-color="#CE722A"/>
<stop offset="0.31" stop-color="#CC4A31"/>
<stop offset="1" stop-color="#FF922F"/>
</linearGradient>
<linearGradient id="paint2_linear_9_7878" x1="14.9794" y1="219.612" x2="14.9794" y2="191.423" gradientUnits="userSpaceOnUse">
<stop offset="0.02" stop-color="#CE722A"/>
<stop offset="0.31" stop-color="#CC4A31"/>
<stop offset="1" stop-color="#FF922F"/>
</linearGradient>
<linearGradient id="paint3_linear_9_7878" x1="68.6898" y1="282.684" x2="68.6898" y2="209.181" gradientUnits="userSpaceOnUse">
<stop offset="0.02" stop-color="#CE722A"/>
<stop offset="0.31" stop-color="#CC4A31"/>
<stop offset="1" stop-color="#FF922F"/>
</linearGradient>
<linearGradient id="paint4_linear_9_7878" x1="79.5426" y1="264.227" x2="79.5426" y2="247.777" gradientUnits="userSpaceOnUse">
<stop stop-color="#3D2447"/>
<stop offset="1" stop-color="#2E3351"/>
</linearGradient>
<linearGradient id="paint5_linear_9_7878" x1="172.672" y1="465.624" x2="172.672" y2="267.525" gradientUnits="userSpaceOnUse">
<stop stop-color="#974541"/>
<stop offset="1" stop-color="#902947"/>
</linearGradient>
<linearGradient id="paint6_linear_9_7878" x1="181.484" y1="465.624" x2="181.484" y2="364.584" gradientUnits="userSpaceOnUse">
<stop offset="0.02" stop-color="#CE722A"/>
<stop offset="0.31" stop-color="#CC4A31"/>
<stop offset="1" stop-color="#FF922F"/>
</linearGradient>
<linearGradient id="paint7_linear_9_7878" x1="171.434" y1="487.382" x2="171.434" y2="283.549" gradientUnits="userSpaceOnUse">
<stop stop-color="#904547"/>
<stop offset="1" stop-color="#AD5941"/>
</linearGradient>
<linearGradient id="paint8_linear_9_7878" x1="199.415" y1="430.495" x2="150.061" y2="430.495" gradientUnits="userSpaceOnUse">
<stop offset="0.02" stop-color="#FFAB00"/>
<stop offset="0.31" stop-color="#DD7331"/>
<stop offset="1" stop-color="#FFC62F"/>
</linearGradient>
<linearGradient id="paint9_linear_9_7878" x1="185.614" y1="478.31" x2="136.873" y2="478.31" gradientUnits="userSpaceOnUse">
<stop stop-color="#D8CCFF"/>
<stop offset="1" stop-color="#C28D8B"/>
</linearGradient>
<linearGradient id="paint10_linear_9_7878" x1="197.713" y1="396.394" x2="169.61" y2="396.394" gradientUnits="userSpaceOnUse">
<stop stop-color="#D172BB"/>
<stop offset="1" stop-color="#FFBDE9"/>
</linearGradient>
<linearGradient id="paint11_linear_9_7878" x1="109.965" y1="291.081" x2="109.965" y2="161.422" gradientUnits="userSpaceOnUse">
<stop stop-color="#A95239"/>
<stop offset="1" stop-color="#904547"/>
</linearGradient>
<linearGradient id="paint12_linear_9_7878" x1="140.201" y1="189.488" x2="118.689" y2="189.488" gradientUnits="userSpaceOnUse">
<stop offset="0.02" stop-color="#FFAB00"/>
<stop offset="0.31" stop-color="#DD7331"/>
<stop offset="1" stop-color="#FFC62F"/>
</linearGradient>
<linearGradient id="paint13_linear_9_7878" x1="122.495" y1="234.664" x2="92.718" y2="234.664" gradientUnits="userSpaceOnUse">
<stop offset="0.02" stop-color="#FFAB00"/>
<stop offset="0.31" stop-color="#DD7331"/>
<stop offset="1" stop-color="#FFC62F"/>
</linearGradient>
<radialGradient id="paint14_radial_9_7878" cx="0" cy="0" r="1" gradientUnits="userSpaceOnUse" gradientTransform="translate(101.826 223.06) rotate(180) scale(18.4534 18.4211)">
<stop stop-color="#1F5B88"/>
<stop offset="1" stop-color="#2E3877"/>
</radialGradient>
<linearGradient id="paint15_linear_9_7878" x1="130.218" y1="231.88" x2="130.218" y2="180.206" gradientUnits="userSpaceOnUse">
<stop stop-color="#AB728D"/>
<stop offset="1" stop-color="#EEE5E5"/>
</linearGradient>
<linearGradient id="paint16_linear_9_7878" x1="194.255" y1="74.4587" x2="194.255" y2="2.14859" gradientUnits="userSpaceOnUse">
<stop offset="0.02" stop-color="#CE722A"/>
<stop offset="0.31" stop-color="#CC4A31"/>
<stop offset="1" stop-color="#FF922F"/>
</linearGradient>
<radialGradient id="paint17_radial_9_7878" cx="0" cy="0" r="1" gradientUnits="userSpaceOnUse" gradientTransform="translate(190.315 26.3125) rotate(180) scale(49.3779 49.2916)">
<stop stop-color="#FFB82F"/>
<stop offset="0.99" stop-color="#DD7331"/>
</radialGradient>
<linearGradient id="paint18_linear_9_7878" x1="173.111" y1="69.5572" x2="173.111" y2="0" gradientUnits="userSpaceOnUse">
<stop offset="0.02" stop-color="#CE722A"/>
<stop offset="0.31" stop-color="#CC4A31"/>
<stop offset="1" stop-color="#FF922F"/>
</linearGradient>
<radialGradient id="paint19_radial_9_7878" cx="0" cy="0" r="1" gradientUnits="userSpaceOnUse" gradientTransform="translate(168.28 22.8092) rotate(180) scale(47.2176 47.1351)">
<stop stop-color="#FFB82F"/>
<stop offset="0.99" stop-color="#DD7331"/>
</radialGradient>
<radialGradient id="paint20_radial_9_7878" cx="0" cy="0" r="1" gradientUnits="userSpaceOnUse" gradientTransform="translate(172.854 59.1301) rotate(180) scale(13.6304 13.6065)">
<stop stop-color="#FFB82F"/>
<stop offset="0.99" stop-color="#DD7331"/>
</radialGradient>
<linearGradient id="paint21_linear_9_7878" x1="157.281" y1="108.098" x2="157.281" y2="65.2165" gradientUnits="userSpaceOnUse">
<stop offset="0.02" stop-color="#CE722A"/>
<stop offset="0.31" stop-color="#CC4A31"/>
<stop offset="1" stop-color="#FF922F"/>
</linearGradient>
<linearGradient id="paint22_linear_9_7878" x1="153.317" y1="107.024" x2="153.317" y2="65.3232" gradientUnits="userSpaceOnUse">
<stop offset="0.01" stop-color="#DD7331"/>
<stop offset="1" stop-color="#FFB82F"/>
</linearGradient>
<linearGradient id="paint23_linear_9_7878" x1="179.992" y1="136.365" x2="179.992" y2="109.571" gradientUnits="userSpaceOnUse">
<stop stop-color="#974541"/>
<stop offset="1" stop-color="#902947"/>
</linearGradient>
<linearGradient id="paint24_linear_9_7878" x1="178.746" y1="138.103" x2="178.746" y2="109.571" gradientUnits="userSpaceOnUse">
<stop stop-color="#EEE5E5"/>
<stop offset="1" stop-color="#AB728D"/>
</linearGradient>
<linearGradient id="paint25_linear_9_7878" x1="175.157" y1="128.711" x2="175.157" y2="70.7934" gradientUnits="userSpaceOnUse">
<stop stop-color="#904547"/>
<stop offset="1" stop-color="#AD5941"/>
</linearGradient>
<linearGradient id="paint26_linear_9_7878" x1="195.941" y1="110.511" x2="195.941" y2="94.673" gradientUnits="userSpaceOnUse">
<stop stop-color="#902947"/>
<stop offset="1" stop-color="#974541"/>
</linearGradient>
<linearGradient id="paint27_linear_9_7878" x1="175.933" y1="127.218" x2="175.933" y2="78.2109" gradientUnits="userSpaceOnUse">
<stop stop-color="#EEE5E5"/>
<stop offset="1" stop-color="#AB728D"/>
</linearGradient>
<linearGradient id="paint28_linear_9_7878" x1="161.709" y1="90.9879" x2="161.709" y2="84.0247" gradientUnits="userSpaceOnUse">
<stop stop-color="#2E1538"/>
<stop offset="1" stop-color="#471F2C"/>
</linearGradient>
<radialGradient id="paint29_radial_9_7878" cx="0" cy="0" r="1" gradientUnits="userSpaceOnUse" gradientTransform="translate(171.331 74.2138) rotate(180) scale(22.6355 22.5959)">
<stop stop-color="#FFB82F"/>
<stop offset="0.99" stop-color="#DD7331"/>
</radialGradient>
<linearGradient id="paint30_linear_9_7878" x1="188.902" y1="292.234" x2="188.902" y2="139.948" gradientUnits="userSpaceOnUse">
<stop stop-color="#AD5941"/>
<stop offset="1" stop-color="#904547"/>
</linearGradient>
<linearGradient id="paint31_linear_9_7878" x1="228.543" y1="178.638" x2="135.302" y2="178.638" gradientUnits="userSpaceOnUse">
<stop stop-color="#AB728D"/>
<stop offset="1" stop-color="#EEE5E5"/>
</linearGradient>
<radialGradient id="paint32_radial_9_7878" cx="0" cy="0" r="1" gradientUnits="userSpaceOnUse" gradientTransform="translate(180.934 149.316) rotate(180) scale(36.0403 35.9773)">
<stop stop-color="#FFB82F"/>
<stop offset="0.99" stop-color="#DD7331"/>
</radialGradient>
<linearGradient id="paint33_linear_9_7878" x1="243.938" y1="185.187" x2="218.592" y2="185.187" gradientUnits="userSpaceOnUse">
<stop offset="0.02" stop-color="#FFAB00"/>
<stop offset="0.31" stop-color="#DD7331"/>
<stop offset="1" stop-color="#FFC62F"/>
</linearGradient>
<radialGradient id="paint34_radial_9_7878" cx="0" cy="0" r="1" gradientUnits="userSpaceOnUse" gradientTransform="translate(171.663 227.693) rotate(180) scale(28.0243 27.9753)">
<stop stop-color="#E2BFBD"/>
<stop offset="1" stop-color="#C7A1A9"/>
</radialGradient>
<linearGradient id="paint35_linear_9_7878" x1="200.079" y1="207.163" x2="144.561" y2="207.163" gradientUnits="userSpaceOnUse">
<stop offset="0.02" stop-color="#FFAB00"/>
<stop offset="0.31" stop-color="#DD7331"/>
<stop offset="1" stop-color="#FFC62F"/>
</linearGradient>
<radialGradient id="paint36_radial_9_7878" cx="0" cy="0" r="1" gradientUnits="userSpaceOnUse" gradientTransform="translate(175.331 61.7211) rotate(180) scale(6.96751 6.95532)">
<stop stop-color="white"/>
<stop offset="1" stop-color="#DDBAD1"/>
</radialGradient>
<linearGradient id="paint37_linear_9_7878" x1="180.194" y1="92.0781" x2="180.194" y2="85.2768" gradientUnits="userSpaceOnUse">
<stop stop-color="#2E1538"/>
<stop offset="1" stop-color="#471F2C"/>
</linearGradient>
<linearGradient id="paint38_linear_9_7878" x1="173.135" y1="108.149" x2="161.934" y2="108.149" gradientUnits="userSpaceOnUse">
<stop stop-color="#EEE5E5"/>
<stop offset="1" stop-color="#AB728D"/>
</linearGradient>
<linearGradient id="paint39_linear_9_7878" x1="170.164" y1="109.828" x2="170.164" y2="108.73" gradientUnits="userSpaceOnUse">
<stop stop-color="#2E1538"/>
<stop offset="1" stop-color="#471F2C"/>
</linearGradient>
<linearGradient id="paint40_linear_9_7878" x1="175.049" y1="114.368" x2="160.737" y2="113.832" gradientUnits="userSpaceOnUse">
<stop stop-color="#EEE5E5"/>
<stop offset="1" stop-color="#AB728D"/>
</linearGradient>
<linearGradient id="paint41_linear_9_7878" x1="168.739" y1="117.996" x2="163.77" y2="117.996" gradientUnits="userSpaceOnUse">
<stop stop-color="#EEE5E5"/>
<stop offset="1" stop-color="#AB728D"/>
</linearGradient>
<radialGradient id="paint42_radial_9_7878" cx="0" cy="0" r="1" gradientUnits="userSpaceOnUse" gradientTransform="translate(161.076 97.1731) rotate(180) scale(3.30025 3.92199)">
<stop stop-color="#FFB82F"/>
<stop offset="0.99" stop-color="#DD7331"/>
</radialGradient>
<radialGradient id="paint43_radial_9_7878" cx="0" cy="0" r="1" gradientUnits="userSpaceOnUse" gradientTransform="translate(162.592 95.2931) rotate(180) scale(1.95755 2.32634)">
<stop stop-color="#E2BFBD"/>
<stop offset="1" stop-color="#C7A1A9"/>
</radialGradient>
<linearGradient id="paint44_linear_9_7878" x1="160.85" y1="97.0112" x2="160.85" y2="91.9082" gradientUnits="userSpaceOnUse">
<stop stop-color="#2E1538"/>
<stop offset="1" stop-color="#471F2C"/>
</linearGradient>
<radialGradient id="paint45_radial_9_7878" cx="0" cy="0" r="1" gradientUnits="userSpaceOnUse" gradientTransform="translate(177.349 97.7537) rotate(180) scale(4.95362 4.94496)">
<stop stop-color="#FFB82F"/>
<stop offset="0.99" stop-color="#DD7331"/>
</radialGradient>
<radialGradient id="paint46_radial_9_7878" cx="0" cy="0" r="1" gradientUnits="userSpaceOnUse" gradientTransform="translate(179.885 96.4266) rotate(180) scale(2.60342 2.59886)">
<stop stop-color="#E2BFBD"/>
<stop offset="1" stop-color="#C7A1A9"/>
</radialGradient>
<linearGradient id="paint47_linear_9_7878" x1="180.653" y1="97.5246" x2="180.653" y2="92.8206" gradientUnits="userSpaceOnUse">
<stop stop-color="#2E1538"/>
<stop offset="1" stop-color="#471F2C"/>
</linearGradient>
<linearGradient id="paint48_linear_9_7878" x1="196.115" y1="107.024" x2="196.115" y2="97.5246" gradientUnits="userSpaceOnUse">
<stop stop-color="#AB728D"/>
<stop offset="1" stop-color="#EEE5E5"/>
</linearGradient>
<linearGradient id="paint49_linear_9_7878" x1="166.619" y1="107.087" x2="166.619" y2="98.1052" gradientUnits="userSpaceOnUse">
<stop stop-color="#9C542E"/>
<stop offset="1"/>
</linearGradient>
<radialGradient id="paint50_radial_9_7878" cx="0" cy="0" r="1" gradientUnits="userSpaceOnUse" gradientTransform="translate(196.056 149.921) rotate(180) scale(26.6237 26.5772)">
<stop stop-color="#008B92"/>
<stop offset="1" stop-color="#00748B"/>
</radialGradient>
<linearGradient id="paint51_linear_9_7878" x1="162.797" y1="78.0805" x2="151.762" y2="78.0805" gradientUnits="userSpaceOnUse">
<stop stop-color="#E5B5B5"/>
<stop offset="1" stop-color="#AB728D"/>
</linearGradient>
<linearGradient id="paint52_linear_9_7878" x1="200.574" y1="73.5029" x2="183.228" y2="73.5029" gradientUnits="userSpaceOnUse">
<stop stop-color="#E5B5B5"/>
<stop offset="1" stop-color="#AB728D"/>
</linearGradient>
<linearGradient id="paint53_linear_9_7878" x1="194.39" y1="109.571" x2="194.39" y2="65.9038" gradientUnits="userSpaceOnUse">
<stop offset="0.01" stop-color="#DD7331"/>
<stop offset="1" stop-color="#FFB82F"/>
</linearGradient>
<linearGradient id="paint54_linear_9_7878" x1="198.465" y1="109.828" x2="198.465" y2="66.1289" gradientUnits="userSpaceOnUse">
<stop offset="0.02" stop-color="#CE722A"/>
<stop offset="0.31" stop-color="#CC4A31"/>
<stop offset="1" stop-color="#FF922F"/>
</linearGradient>
<radialGradient id="paint55_radial_9_7878" cx="0" cy="0" r="1" gradientUnits="userSpaceOnUse" gradientTransform="translate(170.354 142.874) rotate(180) scale(29.425 29.3735)">
<stop stop-color="#FFB82F"/>
<stop offset="0.99" stop-color="#DD7331"/>
</radialGradient>
<linearGradient id="paint56_linear_9_7878" x1="180.934" y1="171.987" x2="180.934" y2="137.799" gradientUnits="userSpaceOnUse">
<stop offset="0.02" stop-color="#CE722A"/>
<stop offset="0.31" stop-color="#CC4A31"/>
<stop offset="1" stop-color="#FF922F"/>
</linearGradient>
<radialGradient id="paint57_radial_9_7878" cx="0" cy="0" r="1" gradientUnits="userSpaceOnUse" gradientTransform="translate(168.32 147.515) rotate(180) scale(38.6675 38.5999)">
<stop stop-color="#FFB82F"/>
<stop offset="0.99" stop-color="#DD7331"/>
</radialGradient>
<linearGradient id="paint58_linear_9_7878" x1="200.079" y1="132.811" x2="158.611" y2="132.811" gradientUnits="userSpaceOnUse">
<stop offset="0.02" stop-color="#CE722A"/>
<stop offset="0.31" stop-color="#CC4A31"/>
<stop offset="1" stop-color="#FF922F"/>
</linearGradient>
<linearGradient id="paint59_linear_9_7878" x1="202.544" y1="138.664" x2="202.544" y2="131.286" gradientUnits="userSpaceOnUse">
<stop offset="0.02" stop-color="#CE722A"/>
<stop offset="0.81" stop-color="#CC4A31"/>
</linearGradient>
<linearGradient id="paint60_linear_9_7878" x1="194.785" y1="147.393" x2="194.785" y2="134.754" gradientUnits="userSpaceOnUse">
<stop offset="0.02" stop-color="#CE722A"/>
<stop offset="0.81" stop-color="#CC4A31"/>
</linearGradient>
<linearGradient id="paint61_linear_9_7878" x1="186.754" y1="153.444" x2="186.754" y2="137.59" gradientUnits="userSpaceOnUse">
<stop offset="0.02" stop-color="#CE722A"/>
<stop offset="0.81" stop-color="#CC4A31"/>
</linearGradient>
<linearGradient id="paint62_linear_9_7878" x1="176.585" y1="158.179" x2="176.585" y2="138.96" gradientUnits="userSpaceOnUse">
<stop offset="0.02" stop-color="#CE722A"/>
<stop offset="0.81" stop-color="#CC4A31"/>
</linearGradient>
<linearGradient id="paint63_linear_9_7878" x1="166.559" y1="157.563" x2="166.559" y2="138.103" gradientUnits="userSpaceOnUse">
<stop offset="0.02" stop-color="#CE722A"/>
<stop offset="0.81" stop-color="#CC4A31"/>
</linearGradient>
<linearGradient id="paint64_linear_9_7878" x1="156.466" y1="148.866" x2="156.466" y2="135.366" gradientUnits="userSpaceOnUse">
<stop offset="0.02" stop-color="#CE722A"/>
<stop offset="0.81" stop-color="#CC4A31"/>
</linearGradient>
<linearGradient id="paint65_linear_9_7878" x1="164.577" y1="157.148" x2="164.577" y2="126.306" gradientUnits="userSpaceOnUse">
<stop stop-color="#2E1538"/>
<stop offset="1" stop-color="#471F2C"/>
</linearGradient>
<radialGradient id="paint66_radial_9_7878" cx="0" cy="0" r="1" gradientUnits="userSpaceOnUse" gradientTransform="translate(166.437 125.859) rotate(180) scale(6.19993 6.1891)">
<stop stop-color="#FFB82F"/>
<stop offset="0.99" stop-color="#DD7331"/>
</radialGradient>
<radialGradient id="paint67_radial_9_7878" cx="0" cy="0" r="1" gradientUnits="userSpaceOnUse" gradientTransform="translate(158.278 152.938) rotate(180) scale(5.00109 4.99235)">
<stop stop-color="#FFB82F"/>
<stop offset="0.99" stop-color="#DD7331"/>
</radialGradient>
<linearGradient id="paint68_linear_9_7878" x1="211.854" y1="196.945" x2="211.854" y2="173.776" gradientUnits="userSpaceOnUse">
<stop stop-color="#EEE5E5"/>
<stop offset="1" stop-color="#AB728D"/>
</linearGradient>
<linearGradient id="paint69_linear_9_7878" x1="172.245" y1="213.336" x2="172.245" y2="201.582" gradientUnits="userSpaceOnUse">
<stop stop-color="#3D2447"/>
<stop offset="1" stop-color="#2E3351"/>
</linearGradient>
<linearGradient id="paint70_linear_9_7878" x1="200.079" y1="192.17" x2="171.663" y2="192.17" gradientUnits="userSpaceOnUse">
<stop stop-color="#AB728D"/>
<stop offset="1" stop-color="#EEE5E5"/>
</linearGradient>
<linearGradient id="paint71_linear_9_7878" x1="153.317" y1="194.007" x2="139.132" y2="194.007" gradientUnits="userSpaceOnUse">
<stop stop-color="#AB728D"/>
<stop offset="1" stop-color="#EEE5E5"/>
</linearGradient>
<linearGradient id="paint72_linear_9_7878" x1="246.612" y1="265.661" x2="215.546" y2="265.661" gradientUnits="userSpaceOnUse">
<stop stop-color="#EEE5E5"/>
<stop offset="1" stop-color="#AB728D"/>
</linearGradient>
<linearGradient id="paint73_linear_9_7878" x1="242.252" y1="285.804" x2="214.96" y2="285.804" gradientUnits="userSpaceOnUse">
<stop stop-color="#AB728D"/>
<stop offset="1" stop-color="#EEE5E5"/>
</linearGradient>
<linearGradient id="paint74_linear_9_7878" x1="254.747" y1="236.054" x2="226.6" y2="236.054" gradientUnits="userSpaceOnUse">
<stop offset="0.02" stop-color="#FFAB00"/>
<stop offset="0.31" stop-color="#DD7331"/>
<stop offset="1" stop-color="#FFC62F"/>
</linearGradient>
<radialGradient id="paint75_radial_9_7878" cx="0" cy="0" r="1" gradientUnits="userSpaceOnUse" gradientTransform="translate(231.981 226.07) rotate(180) scale(19.0944 19.061)">
<stop stop-color="#1F5B88"/>
<stop offset="1" stop-color="#2E3877"/>
</radialGradient>
<linearGradient id="paint76_linear_9_7878" x1="245.754" y1="237.208" x2="226.6" y2="237.208" gradientUnits="userSpaceOnUse">
<stop stop-color="#AB728D"/>
<stop offset="1" stop-color="#EEE5E5"/>
</linearGradient>
<linearGradient id="paint77_linear_9_7878" x1="123.385" y1="258.121" x2="78.9493" y2="258.121" gradientUnits="userSpaceOnUse">
<stop stop-color="#EEE5E5"/>
<stop offset="1" stop-color="#AB728D"/>
</linearGradient>
<linearGradient id="paint78_linear_9_7878" x1="200.079" y1="225.458" x2="144.937" y2="225.458" gradientUnits="userSpaceOnUse">
<stop stop-color="#C28D8B"/>
<stop offset="1" stop-color="#FFEFE2"/>
</linearGradient>
<radialGradient id="paint79_radial_9_7878" cx="0" cy="0" r="1" gradientUnits="userSpaceOnUse" gradientTransform="translate(163.897 315.036) rotate(180) scale(41.1364 41.0645)">
<stop stop-color="#E2BFBD"/>
<stop offset="1" stop-color="#C7A1A9"/>
</radialGradient>
<linearGradient id="paint80_linear_9_7878" x1="193.686" y1="343.433" x2="134.104" y2="343.433" gradientUnits="userSpaceOnUse">
<stop offset="0.02" stop-color="#FFAB00"/>
<stop offset="0.31" stop-color="#DD7331"/>
<stop offset="1" stop-color="#FFC62F"/>
</linearGradient>
<linearGradient id="paint81_linear_9_7878" x1="164.522" y1="337.312" x2="164.522" y2="265.159" gradientUnits="userSpaceOnUse">
<stop stop-color="#D8CCFF"/>
<stop offset="1" stop-color="#C28D8B"/>
</linearGradient>
<linearGradient id="paint82_linear_9_7878" x1="187.711" y1="349.938" x2="187.711" y2="239.522" gradientUnits="userSpaceOnUse">
<stop stop-color="#3D2447"/>
<stop offset="1" stop-color="#2E3351"/>
</linearGradient>
<linearGradient id="paint83_linear_9_7878" x1="144.589" y1="334.535" x2="144.589" y2="237.891" gradientUnits="userSpaceOnUse">
<stop stop-color="#3D2447"/>
<stop offset="1" stop-color="#2E3351"/>
</linearGradient>
<linearGradient id="paint84_linear_9_7878" x1="187.711" y1="349.939" x2="187.711" y2="239.522" gradientUnits="userSpaceOnUse">
<stop stop-color="#E1CECC"/>
<stop offset="1" stop-color="#43317B"/>
</linearGradient>
<linearGradient id="paint85_linear_9_7878" x1="144.454" y1="334.535" x2="144.454" y2="246.241" gradientUnits="userSpaceOnUse">
<stop stop-color="#F2EAE9"/>
<stop offset="1" stop-color="#5343A4"/>
</linearGradient>
<linearGradient id="paint86_linear_9_7878" x1="200.072" y1="247.777" x2="140.193" y2="247.777" gradientUnits="userSpaceOnUse">
<stop offset="0.02" stop-color="#FFAB00"/>
<stop offset="0.31" stop-color="#DD7331"/>
<stop offset="1" stop-color="#FFC62F"/>
</linearGradient>
<linearGradient id="paint87_linear_9_7878" x1="180.091" y1="270.539" x2="180.091" y2="237.887" gradientUnits="userSpaceOnUse">
<stop offset="0.02" stop-color="#CE722A"/>
<stop offset="0.31" stop-color="#CC4A31"/>
<stop offset="1" stop-color="#B8512F"/>
</linearGradient>
<linearGradient id="paint88_linear_9_7878" x1="200.072" y1="231.615" x2="188.898" y2="231.615" gradientUnits="userSpaceOnUse">
<stop stop-color="#C28D8B"/>
<stop offset="1" stop-color="#FFEFE2"/>
</linearGradient>
<linearGradient id="paint89_linear_9_7878" x1="150.824" y1="364.916" x2="150.824" y2="340.017" gradientUnits="userSpaceOnUse">
<stop stop-color="#D8CCFF"/>
<stop offset="1" stop-color="#C28D8B"/>
</linearGradient>
<linearGradient id="paint90_linear_9_7878" x1="228.847" y1="156.035" x2="228.847" y2="141.133" gradientUnits="userSpaceOnUse">
<stop stop-color="#3D151F"/>
<stop offset="1" stop-color="#A65442"/>
</linearGradient>
<linearGradient id="paint91_linear_9_7878" x1="131.065" y1="161.454" x2="131.065" y2="149.036" gradientUnits="userSpaceOnUse">
<stop stop-color="#3D151F"/>
<stop offset="1" stop-color="#A65442"/>
</linearGradient>
<linearGradient id="paint92_linear_9_7878" x1="249.093" y1="218.522" x2="249.093" y2="196.037" gradientUnits="userSpaceOnUse">
<stop stop-color="#3D151F"/>
<stop offset="1" stop-color="#A65442"/>
</linearGradient>
<linearGradient id="paint93_linear_9_7878" x1="250.007" y1="253.113" x2="250.007" y2="220.256" gradientUnits="userSpaceOnUse">
<stop stop-color="#3D151F"/>
<stop offset="1" stop-color="#A65442"/>
</linearGradient>
<linearGradient id="paint94_linear_9_7878" x1="133.957" y1="211.867" x2="133.957" y2="175.747" gradientUnits="userSpaceOnUse">
<stop stop-color="#EEE5E5"/>
<stop offset="1" stop-color="#AB728D"/>
</linearGradient>
<linearGradient id="paint95_linear_9_7878" x1="168.423" y1="133.869" x2="161.404" y2="133.869" gradientUnits="userSpaceOnUse">
<stop stop-color="#EEE5E5"/>
<stop offset="1" stop-color="#AB728D"/>
</linearGradient>
<linearGradient id="paint96_linear_9_7878" x1="165.681" y1="142.732" x2="158.745" y2="142.732" gradientUnits="userSpaceOnUse">
<stop stop-color="#EEE5E5"/>
<stop offset="1" stop-color="#AB728D"/>
</linearGradient>
<linearGradient id="paint97_linear_9_7878" x1="243.863" y1="185.084" x2="219.035" y2="185.084" gradientUnits="userSpaceOnUse">
<stop stop-color="#D172BB"/>
<stop offset="1" stop-color="#FFBDE9"/>
</linearGradient>
<linearGradient id="paint98_linear_9_7878" x1="139.738" y1="189.705" x2="118.796" y2="189.705" gradientUnits="userSpaceOnUse">
<stop stop-color="#D172BB"/>
<stop offset="1" stop-color="#FFBDE9"/>
</linearGradient>
<linearGradient id="paint99_linear_9_7878" x1="112.374" y1="209.473" x2="112.374" y2="189.37" gradientUnits="userSpaceOnUse">
<stop stop-color="#3D151F"/>
<stop offset="1" stop-color="#A65442"/>
</linearGradient>
<linearGradient id="paint100_linear_9_7878" x1="192.787" y1="425.408" x2="192.787" y2="367.965" gradientUnits="userSpaceOnUse">
<stop stop-color="#3D151F"/>
<stop offset="1" stop-color="#A65442"/>
</linearGradient>
<linearGradient id="paint101_linear_9_7878" x1="175.387" y1="400.747" x2="175.387" y2="278.963" gradientUnits="userSpaceOnUse">
<stop offset="0.02" stop-color="#CE722A"/>
<stop offset="0.31" stop-color="#CC4A31"/>
<stop offset="1" stop-color="#FF922F"/>
</linearGradient>
<linearGradient id="paint102_linear_9_7878" x1="257.572" y1="394.66" x2="224.226" y2="394.66" gradientUnits="userSpaceOnUse">
<stop offset="0.02" stop-color="#FFAB00"/>
<stop offset="0.31" stop-color="#DD7331"/>
<stop offset="1" stop-color="#FFC62F"/>
</linearGradient>
<linearGradient id="paint103_linear_9_7878" x1="114.044" y1="294.154" x2="114.044" y2="278.963" gradientUnits="userSpaceOnUse">
<stop stop-color="#3D2447"/>
<stop offset="1" stop-color="#2E3351"/>
</linearGradient>
<linearGradient id="paint104_linear_9_7878" x1="223.569" y1="182.746" x2="223.569" y2="167.812" gradientUnits="userSpaceOnUse">
<stop stop-color="#A65442"/>
<stop offset="1" stop-color="#3D151F"/>
</linearGradient>
<linearGradient id="paint105_linear_9_7878" x1="136.118" y1="192.92" x2="136.118" y2="171.027" gradientUnits="userSpaceOnUse">
<stop stop-color="#3D151F"/>
<stop offset="1" stop-color="#A65442"/>
</linearGradient>
<linearGradient id="paint106_linear_9_7878" x1="128.786" y1="487.382" x2="128.786" y2="0" gradientUnits="userSpaceOnUse">
<stop/>
<stop offset="0.31" stop-color="#502F01"/>
<stop offset="1" stop-color="#FF9506"/>
</linearGradient>
</defs>
</svg>
