<svg width="31" height="33" viewBox="0 0 31 33" fill="none" xmlns="http://www.w3.org/2000/svg">
<path d="M2.5973 14.2899C2.61132 14.0414 3.8601 13.1233 3.8601 13.1233L8.38409 16.8969L7.44887 17.4239L2.5973 14.2899Z" fill="#404C29"/>
<path d="M3.45163 11.387L4.3308 10.6877L8.80736 14.7233L9.04271 16.5623L3.43064 12.3611C3.43064 12.3611 3.08215 11.6789 3.45163 11.387Z" fill="#404C29"/>
<path d="M22.7243 26.0641C22.7243 26.0641 21.0683 27.0705 19.2769 28.0642C19.2769 28.0642 19.273 28.0664 19.2691 28.0686C17.3903 29.1169 15.366 30.1529 14.9589 29.9953C14.4904 29.82 12.9219 25.2597 9.78176 20.3977C6.64165 15.5358 2.84648 14.0396 2.81038 13.2284C2.79416 12.9081 3.07253 12.1812 3.45387 11.391C3.27914 11.8189 3.72068 11.9101 4.75319 12.4213C5.82697 12.9511 7.93162 14.8821 7.93162 14.8821C6.26638 12.51 3.94518 10.6958 4.10519 10.1506C4.10908 10.1484 4.11074 10.1423 4.1124 10.1361C4.1124 10.1361 4.1163 10.1339 4.11796 10.1277C4.5623 9.34915 5.01521 8.68601 5.28121 8.48383L11.6883 7.32628L22.6159 25.8899L22.7188 26.0725L22.7243 26.0641Z" fill="url(#paint0_linear_16_10406)"/>
<path d="M27.627 18.9294C27.7267 19.1975 27.8158 19.4558 27.8943 19.7045C27.8988 19.7124 27.9033 19.7204 27.9016 19.7265C28.2806 20.9093 28.4256 21.8317 28.2482 22.3553C27.9817 23.1487 21.3615 27.0988 19.2769 28.0643C19.2769 28.0643 19.273 28.0665 19.2691 28.0686C19.0046 28.1915 18.812 28.2687 18.72 28.2787C18.6521 28.2856 18.5695 28.2484 18.4763 28.165C17.4307 27.248 14.7923 20.9894 10.998 15.8685C6.85786 10.2888 5.58031 9.57046 5.18254 8.76433C5.14899 8.70479 5.18782 8.6097 5.28062 8.47373C6.36607 6.94687 15.1828 1.10015 16.9372 1.43469C17.5265 1.54196 18.9308 3.28707 20.5599 5.73181C20.5644 5.73975 20.5689 5.74769 20.5734 5.75563C20.9009 6.24572 21.2318 6.76006 21.57 7.29644L21.5856 7.32422L21.5878 7.32819C23.9138 11.0277 26.4288 15.6823 27.6186 18.9237L27.627 18.9294Z" fill="url(#paint1_linear_16_10406)"/>
<path d="M9.95811 12.0824C9.72787 12.9129 16.7516 23.8286 17.1527 24.34C17.5538 24.8514 18.8784 24.2409 21.6754 25.4053C23.2839 26.0731 26.1048 23.7357 25.7159 22.025C25.327 20.3144 26.3852 18.557 26.2245 17.2513C26.0637 15.9455 19.8453 6.21292 19.1403 5.87281C18.4336 5.53887 16.2587 5.34189 14.839 3.43286C14.0115 2.31973 8.55315 6.22698 8.55392 6.62924C8.55079 7.0337 10.9809 8.3943 9.95977 12.0762L9.95811 12.0824Z" fill="#D8EC38"/>
<path d="M13.6282 8.48202C9.90722 11.1174 16.6076 22.8534 21.7288 20.9718C26.846 19.0923 19.5585 4.28264 13.6282 8.48202Z" fill="url(#paint2_linear_16_10406)"/>
<path d="M17.3421 14.1346C16.5736 13.8459 16.7575 13.2245 17.1446 12.8547C17.5279 12.4871 19.7939 13.1191 20.0572 12.9759C20.0572 12.9759 19.8901 11.5587 19.6443 11.2318C19.4593 10.9856 18.2048 10.3537 16.9453 10.3051C16.5287 9.59323 16.2369 9.13007 16.1717 9.11453C15.8834 9.03117 14.5837 9.83154 14.3484 10.0426C14.2966 10.0874 14.5477 10.5421 14.977 11.2311C14.4047 12.4113 14.8195 14.5049 15.9073 15.3876C17.3094 16.5273 19.215 14.6429 19.7493 14.8439C20.2835 15.0449 19.9725 16.4701 19.4224 16.733C19.3829 16.7448 19.3433 16.7567 19.3038 16.7685C18.7439 16.8591 17.9258 15.9813 17.5759 16.0163C17.1981 16.0566 16.615 16.8349 16.7481 17.3718C16.8655 17.8443 18.5394 18.036 19.6626 17.9156C20.0051 18.3502 20.2374 18.6167 20.2931 18.6062C20.2931 18.6062 21.1347 18.3412 21.1527 18.1271C21.1565 18.0884 20.997 17.7598 20.7431 17.2545C21.2501 16.3412 21.3728 14.6456 21.2075 13.8967C20.9871 12.886 18.1162 14.4149 17.3499 14.1302L17.3421 14.1346Z" fill="#D8EC38"/>
<g style="mix-blend-mode:multiply" opacity="0.3">
<path d="M4.11016 10.1322C4.11016 10.1322 4.10684 10.1445 4.10295 10.1467C4.09515 10.1511 4.0896 10.1594 4.08794 10.1656C4.09515 10.1511 4.10237 10.1365 4.10793 10.1282L4.11016 10.1322Z" fill="#912774"/>
</g>
<g style="mix-blend-mode:multiply" opacity="0.3">
<path d="M17.9096 28.8085C17.1186 28.9718 15.6001 24.3362 14.9231 22.9344C14.9231 22.9344 15.9138 25.5035 16.0795 27.0732C16.2453 28.6429 16.5495 29.5017 17.0656 29.2423C17.5817 28.9828 17.9096 28.8085 17.9096 28.8085Z" fill="#912774"/>
</g>
<g style="mix-blend-mode:soft-light" opacity="0.3">
<path d="M5.66863 8.5427C5.25094 8.97679 10.0393 13.7572 12.1152 15.5004C14.1849 17.2419 21.8855 10.5807 21.96 9.30974C22.0345 8.03877 18.1489 2.69213 16.8719 1.94739C15.5909 1.20485 7.52015 6.62601 5.67476 8.54447L5.66863 8.5427Z" fill="white"/>
</g>
<path d="M2.59731 14.2898C2.62139 14.6424 2.564 14.9414 2.71199 15.1038C2.85998 15.2662 5.17558 15.6036 8.21044 18.7572C11.2492 21.9085 14.2363 29.8063 14.3493 30.0616C14.4624 30.3169 14.9528 29.9936 14.9528 29.9936C14.9528 29.9936 11.7739 23.2132 9.36214 19.5255C6.95041 15.8377 2.59731 14.2898 2.59731 14.2898Z" fill="url(#paint3_linear_16_10406)"/>
<path d="M7.59682 18.1511C7.59682 18.1511 7.32793 18.585 7.31869 18.7053C7.30944 18.8256 8.44828 19.8626 9.65043 21.6589C10.8503 23.4512 11.1575 24.6431 11.3364 24.9607C11.5153 25.2782 14.9433 23.5715 15.5768 23.2563C16.2104 22.9412 26.7598 16.8346 26.7598 16.8346C26.7598 16.8346 27.0998 16.5541 27.0702 16.2465C27.0406 15.9389 23.4566 9.1411 23.2704 8.83807C23.0803 8.53724 22.4588 8.74626 22.4588 8.74626L22.7546 9.24379C22.7546 9.24379 12.5582 16.0771 11.5551 16.6476C10.552 17.2181 7.85644 18.4023 7.85644 18.4023L7.59682 18.1511Z" fill="url(#paint4_linear_16_10406)"/>
<path d="M9.30574 21.2203C9.30574 21.2203 12.362 19.8381 13.1466 19.4901C13.9311 19.1422 24.8219 11.7554 24.8219 11.7554L25.4992 13.0578C25.4992 13.0578 14.4949 19.8966 13.6727 20.3965C12.8506 20.8964 10.3414 22.5299 10.3414 22.5299L9.30185 21.2225L9.30574 21.2203Z" fill="url(#paint5_linear_16_10406)"/>
<g style="mix-blend-mode:multiply" opacity="0.5">
<path d="M11.559 16.6454C11.4416 17.0201 11.9517 17.4334 13.4065 19.9241C14.8613 22.4148 14.9886 23.0962 15.2474 23.191C15.5061 23.2857 25.9822 17.3041 27.0718 16.2403C27.0718 16.2403 27.1684 16.5939 26.7614 16.8284L26.921 17.1935C26.921 17.1935 17.3162 23.2908 15.9448 23.9276C14.5734 24.5644 12.2123 25.1575 12.2123 25.1575L12.04 24.8518C12.04 24.8518 11.4136 25.1159 11.3403 24.9585C11.267 24.801 10.8469 23.3904 9.89243 22.0246C8.93798 20.6587 7.39141 18.8526 7.35505 18.7789C7.31868 18.7053 7.59906 18.1551 7.59906 18.1551L7.8034 18.3537C7.8034 18.3537 10.2087 17.5109 11.5573 16.6516L11.559 16.6454Z" fill="#A42E89"/>
</g>
<g style="mix-blend-mode:multiply" opacity="0.3">
<path d="M7.48298 18.9422C7.60848 18.7094 10.929 17.058 11.4232 17.2973C11.9174 17.5365 14.8913 22.6229 14.9724 23.0583C15.0495 23.496 11.7678 25.0157 11.5549 24.984C11.342 24.9523 11.2019 23.6924 9.89656 21.8497C8.59122 20.007 7.48298 18.9422 7.48298 18.9422Z" fill="#A42E89"/>
</g>
<path d="M10.6422 17.2143C10.4513 17.3219 14.8209 15.5552 17.7476 13.451C20.6721 11.3429 23.3369 8.94704 23.3369 8.94704L22.7562 9.23764C22.7562 9.23764 15.1292 14.7539 10.6422 17.2143Z" fill="white"/>
<g style="mix-blend-mode:multiply" opacity="0.2">
<path d="M12.2885 16.637C11.9312 17.1783 14.7081 19.2273 15.9235 19.2066C17.135 19.1881 21.6927 17.2998 23.1284 15.6017C24.5624 13.9099 23.368 9.77669 23.2314 9.42485C23.0964 9.06684 19.8917 12.0808 17.5683 13.5155C15.245 14.9502 12.5124 16.2964 12.2885 16.637Z" fill="#F0AE89"/>
</g>
<g style="mix-blend-mode:soft-light">
<path d="M11.8457 17.0539C11.9697 16.6545 14.3118 18.5877 15.2141 19.779C16.1186 20.9742 15.5274 22.7403 15.2507 22.8962C14.974 23.0521 11.8457 17.0539 11.8457 17.0539Z" fill="white"/>
</g>
<g style="mix-blend-mode:multiply" opacity="0.3">
<path d="M16.9394 1.43866C17.5287 1.54592 18.933 3.29104 20.5622 5.73577C19.4066 4.12242 17.4519 1.89253 15.5692 2.0957C12.6452 2.40976 5.28452 8.47153 5.28452 8.47153C6.36997 6.94467 15.1867 1.09795 16.9411 1.43249L16.9394 1.43866Z" fill="#911D3D"/>
</g>
<g style="mix-blend-mode:soft-light" opacity="0.5">
<path d="M12.7805 3.19643C10.0263 5.18768 13.8946 6.44915 16.5711 6.41573C19.2477 6.38232 18.1884 3.20857 16.891 2.3184C15.5997 1.43 12.7805 3.19643 12.7805 3.19643Z" fill="white"/>
</g>
<g style="mix-blend-mode:multiply" opacity="0.3">
<path d="M7.80116 18.3497C7.80116 18.3497 6.23908 16.5889 5.80396 15.1972C5.36272 13.8037 7.74884 14.8857 8.54762 15.2828C9.34641 15.68 5.07819 11.3125 5.04614 10.2898C5.0141 9.26714 11.1472 15.7687 11.3886 16.4067C11.63 17.0447 7.80116 18.3497 7.80116 18.3497Z" fill="#BE81A9"/>
</g>
<path d="M11.559 16.6454C11.559 16.6454 10.9622 15.2036 9.31662 13.2126C7.66716 11.2239 5.7859 9.54352 5.7859 9.54352C5.7859 9.54352 8.83723 12.5623 11.5629 16.6432L11.559 16.6454Z" fill="#BEEF31"/>
<path d="M15.9487 23.9254C15.9487 23.9254 18.4111 28.186 19.0024 28.1875C19.0024 28.1875 18.703 28.4033 18.4111 28.186C18.1193 27.9687 16.4059 24.9281 15.9487 23.9254Z" fill="#BEE009"/>
<g style="mix-blend-mode:multiply" opacity="0.3">
<path d="M27.9016 19.7265C28.2806 20.9093 28.4256 21.8317 28.2483 22.3553C27.9817 23.1487 21.3615 27.0988 19.2769 28.0643C19.2769 28.0643 19.273 28.0664 19.2691 28.0686C17.3903 29.1169 15.366 30.153 14.9589 29.9954C14.9589 29.9954 16.9928 29.3408 18.4763 28.165C19.2035 27.5878 20.8889 26.7794 22.6153 25.8798C24.4163 24.9486 26.2662 23.9219 27.1137 22.9841C28.1481 21.8312 28.0904 20.5353 27.8994 19.7226L27.9016 19.7265Z" fill="#911D3D"/>
</g>
<defs>
<linearGradient id="paint0_linear_16_10406" x1="17.9231" y1="28.8323" x2="6.17133" y2="7.97703" gradientUnits="userSpaceOnUse">
<stop stop-color="#427038"/>
<stop offset="0.99" stop-color="#636F00"/>
</linearGradient>
<linearGradient id="paint1_linear_16_10406" x1="23.4449" y1="25.7941" x2="11.172" y2="4.01389" gradientUnits="userSpaceOnUse">
<stop stop-color="#84A61D"/>
<stop offset="1" stop-color="#AEC200"/>
</linearGradient>
<linearGradient id="paint2_linear_16_10406" x1="21.7756" y1="20.982" x2="14.4548" y2="7.99008" gradientUnits="userSpaceOnUse">
<stop stop-color="#84A61D"/>
<stop offset="1" stop-color="#AEC200"/>
</linearGradient>
<linearGradient id="paint3_linear_16_10406" x1="13.6479" y1="30.7393" x2="3.94949" y2="13.5279" gradientUnits="userSpaceOnUse">
<stop stop-color="#427038"/>
<stop offset="0.99" stop-color="#636F00"/>
</linearGradient>
<linearGradient id="paint4_linear_16_10406" x1="8.97667" y1="21.6568" x2="25.3119" y2="12.452" gradientUnits="userSpaceOnUse">
<stop stop-color="#F8D5E0"/>
<stop offset="1" stop-color="#FFE4EC"/>
</linearGradient>
<linearGradient id="paint5_linear_16_10406" x1="9.55626" y1="21.6649" x2="25.3849" y2="12.7456" gradientUnits="userSpaceOnUse">
<stop stop-color="#DE0086"/>
<stop offset="1" stop-color="#FF003B"/>
</linearGradient>
</defs>
</svg>
